<svg width="18" height="21" viewBox="0 0 18 21" fill="none" xmlns="http://www.w3.org/2000/svg">
<path d="M2.47102 1.41998C2.42862 2.12962 2.53273 2.84039 2.77685 3.50807C3.02097 4.17575 3.39989 4.78604 3.89002 5.30098C2.93738 5.57411 2.08448 6.11785 1.43481 6.86622C0.785136 7.61459 0.366613 8.53541 0.230019 9.51698C-0.0993648 11.8725 0.383865 14.27 1.60002 16.314L1.95002 16.904C1.96328 16.9257 1.97764 16.9467 1.99302 16.967L3.40902 18.873C3.70894 19.2769 4.0933 19.6107 4.53534 19.851C4.97739 20.0912 5.46649 20.2323 5.9686 20.2642C6.47071 20.2962 6.97375 20.2184 7.44271 20.0361C7.91167 19.8539 8.33527 19.5716 8.68402 19.209C8.72479 19.1666 8.77371 19.1328 8.82784 19.1098C8.88197 19.0867 8.94019 19.0749 8.99902 19.0749C9.05785 19.0749 9.11607 19.0867 9.1702 19.1098C9.22433 19.1328 9.27324 19.1666 9.31402 19.209C9.66277 19.5716 10.0864 19.8539 10.5553 20.0361C11.0243 20.2184 11.5273 20.2962 12.0294 20.2642C12.5315 20.2323 13.0206 20.0912 13.4627 19.851C13.9047 19.6107 14.2891 19.2769 14.589 18.873L16.005 16.966C16.0201 16.9457 16.0341 16.9247 16.047 16.903L16.398 16.313C17.6148 14.2699 18.099 11.8732 17.771 9.51798C17.6742 8.82399 17.436 8.15726 17.0711 7.55907C16.7061 6.96088 16.2223 6.44396 15.6496 6.04031C15.0768 5.63666 14.4273 5.35487 13.7412 5.21239C13.0552 5.06991 12.3471 5.06977 11.661 5.21198L9.76002 5.60598H9.75702C9.78702 4.82598 9.90902 3.98598 10.148 3.26798C10.438 2.39998 10.84 1.87798 11.288 1.69198C11.4717 1.61533 11.6174 1.46886 11.693 1.28479C11.7687 1.10073 11.7682 0.894139 11.6915 0.710477C11.6149 0.526814 11.4684 0.381122 11.2843 0.305451C11.1003 0.22978 10.8937 0.230329 10.71 0.306977C9.65802 0.745977 9.06002 1.78698 8.72502 2.79298L8.67902 2.93498C8.43275 2.45913 8.11469 2.02403 7.73602 1.64498C7.2174 1.12577 6.59439 0.722661 5.90826 0.462345C5.22213 0.202028 4.48852 0.0904422 3.75602 0.134977C3.42173 0.154218 3.10613 0.295483 2.86909 0.531975C2.63204 0.768466 2.49004 1.08373 2.47002 1.41798L2.47102 1.41998ZM5.39702 9.23498C5.05002 9.30398 4.73202 9.54798 4.53302 10.013C4.33002 10.487 4.25802 11.19 4.47702 12.067C4.52204 12.2588 4.48978 12.4606 4.38721 12.6288C4.28465 12.797 4.12001 12.9181 3.92888 12.9659C3.73776 13.0138 3.53549 12.9844 3.3658 12.8843C3.19611 12.7842 3.07262 12.6214 3.02202 12.431C2.74202 11.309 2.79502 10.261 3.15402 9.42198C3.51702 8.57498 4.19902 7.94398 5.10302 7.76398C5.20099 7.74085 5.30261 7.73768 5.40184 7.75466C5.50106 7.77164 5.59584 7.80842 5.68055 7.86281C5.76526 7.9172 5.83815 7.98808 5.89488 8.07124C5.95161 8.1544 5.99102 8.24812 6.01076 8.34683C6.0305 8.44554 6.03017 8.54721 6.00979 8.64579C5.9894 8.74437 5.94938 8.83783 5.89211 8.92062C5.83484 9.0034 5.76149 9.07381 5.67643 9.12764C5.59137 9.18148 5.49635 9.21764 5.39702 9.23398V9.23498Z" fill="url(#paint0_linear_17_6)"/>
<defs>
<linearGradient id="paint0_linear_17_6" x1="-5.10008" y1="-25.4142" x2="44.4359" y2="25.1014" gradientUnits="userSpaceOnUse">
<stop stop-color="white"/>
<stop offset="0.484375" stop-color="#0DA03F"/>
</linearGradient>
</defs>
</svg>
