<svg width="21" height="21" viewBox="0 0 21 21" fill="none" xmlns="http://www.w3.org/2000/svg">
<path d="M9.53098 10.25C9.53098 10.0511 9.61021 9.86032 9.75124 9.71967C9.89227 9.57902 10.0836 9.5 10.283 9.5C10.4824 9.5 10.6737 9.42098 10.8148 9.28033C10.9558 9.13968 11.035 8.94891 11.035 8.75C11.035 8.55109 10.9558 8.36032 10.8148 8.21967C10.6737 8.07902 10.4824 8 10.283 8C9.68465 8 9.11082 8.23705 8.68772 8.65901C8.26463 9.08097 8.02693 9.65326 8.02693 10.25C8.02693 10.4489 8.10617 10.6397 8.2472 10.7803C8.38823 10.921 8.57951 11 8.77896 11C8.9784 11 9.16968 10.921 9.31072 10.7803C9.45175 10.6397 9.53098 10.4489 9.53098 10.25ZM11.5364 0C8.41097 0 5.7087 1.825 4.23173 4.494C3.99109 4.929 3.62109 5.307 3.17289 5.609C1.25874 6.901 0.00537109 9.18 0.00537109 11.75C0.00537109 15.696 2.98037 19 6.77357 19C7.09844 19 7.4183 18.976 7.73114 18.928C8.60791 18.7944 9.50472 18.9268 10.3051 19.308C11.4317 19.8608 12.6902 20.0901 13.94 19.9704C15.1899 19.8507 16.3816 19.3866 17.3821 18.6301C18.3826 17.8735 19.1524 16.8543 19.6053 15.6864C20.0583 14.5186 20.1766 13.2481 19.947 12.017C19.8764 11.6608 19.8683 11.295 19.9229 10.936C20.0142 10.387 20.0598 9.83147 20.0593 9.275C20.0593 4.221 16.3092 0 11.5364 0ZM15.2965 10.5C15.2965 11.1238 15.1733 11.7414 14.9339 12.3177C14.6946 12.894 14.3438 13.4177 13.9015 13.8588C13.4592 14.2998 12.9342 14.6497 12.3563 14.8884C11.7785 15.1271 11.1591 15.25 10.5337 15.25C9.90821 15.25 9.28888 15.1271 8.71103 14.8884C8.13318 14.6497 7.60813 14.2998 7.16586 13.8588C6.7236 13.4177 6.37277 12.894 6.13342 12.3177C5.89406 11.7414 5.77087 11.1238 5.77087 10.5C5.77087 9.24022 6.27266 8.03204 7.16586 7.14124C8.05906 6.25045 9.2705 5.75 10.5337 5.75C11.7968 5.75 13.0083 6.25045 13.9015 7.14124C14.7947 8.03204 15.2965 9.24022 15.2965 10.5V10.5Z" fill="url(#paint0_linear_17_8)"/>
<defs>
<linearGradient id="paint0_linear_17_8" x1="-5.90593" y1="-25.3565" x2="42.7405" y2="31.1271" gradientUnits="userSpaceOnUse">
<stop stop-color="white"/>
<stop offset="0.484375" stop-color="#0DA03F"/>
</linearGradient>
</defs>
</svg>
