<svg width="28" height="31" viewBox="0 0 28 31" fill="none" xmlns="http://www.w3.org/2000/svg">
<path d="M14.8596 0.489044C14.6228 0.291161 14.3168 0.181824 13.9998 0.181824C13.6828 0.181824 13.3768 0.291161 13.1401 0.489044C11.9088 1.51279 10.9269 2.77339 10.2612 4.18511C9.59549 5.59682 9.26159 7.12652 9.28221 8.67017C9.28396 8.83176 9.33007 8.99021 9.41607 9.13021C9.50207 9.27022 9.62507 9.38706 9.7732 9.46947C11.0717 10.1904 12.2456 11.0928 13.2543 12.1457C13.3483 12.2439 13.4632 12.3225 13.5917 12.3762C13.7201 12.43 13.8592 12.4578 13.9998 12.4578C14.1404 12.4578 14.2795 12.43 14.408 12.3762C14.5364 12.3225 14.6513 12.2439 14.7453 12.1457C15.7537 11.0943 16.9269 10.1932 18.2244 9.47324C18.3729 9.39106 18.4963 9.27431 18.5827 9.13429C18.669 8.99427 18.7154 8.83571 18.7174 8.67393C18.7383 7.12997 18.4046 5.5999 17.7388 4.18784C17.0731 2.77579 16.0911 1.51488 14.8596 0.490925V0.489044ZM0.00532795 19.2887C-0.0103424 19.125 0.00863645 18.96 0.0611724 18.8032C0.113708 18.6464 0.198765 18.5008 0.311448 18.375C0.424132 18.2491 0.562219 18.1454 0.717765 18.0699C0.873311 17.9943 1.04325 17.9483 1.2178 17.9346C3.88607 17.7264 6.5565 18.3115 8.85064 19.607C11.1448 20.9026 12.9463 22.8428 13.9998 25.1528C15.0533 22.8428 16.8548 20.9026 19.149 19.607C21.4431 18.3115 24.1135 17.7264 26.7818 17.9346C27.5133 17.991 28.0624 18.5966 27.9943 19.2887C27.7062 22.265 26.2429 25.0326 23.8916 27.0482C21.5403 29.0637 18.471 30.1814 15.2864 30.1818H14.3525C14.2333 30.1817 14.1147 30.1665 13.9998 30.1367C13.8849 30.1665 13.7663 30.1817 13.6471 30.1818H12.7132C9.52865 30.1814 6.45933 29.0637 4.10804 27.0482C1.75675 25.0326 0.293377 22.265 0.00532795 19.2887V19.2887ZM13.9998 16.6896C12.9463 14.3796 11.1448 12.4393 8.85064 11.1438C6.5565 9.84826 3.88607 9.26314 1.2178 9.47136C1.04325 9.48508 0.873311 9.53105 0.717765 9.60663C0.562219 9.68221 0.424132 9.78591 0.311448 9.91176C0.198765 10.0376 0.113708 10.1831 0.0611724 10.3399C0.00863645 10.4967 -0.0103424 10.6618 0.00532795 10.8255C0.163314 12.4756 0.685418 14.0768 1.53845 15.5273C1.62434 15.673 1.74994 15.7947 1.90241 15.88C2.05488 15.9653 2.22874 16.011 2.40621 16.0125C4.43318 16.0285 6.43485 16.4367 8.28618 17.2113C10.1375 17.986 11.7987 19.1106 13.1661 20.5149C13.2708 20.6222 13.4006 20.7052 13.5453 20.7574C13.6899 20.8096 13.8455 20.8296 13.9998 20.8158C14.1541 20.8296 14.3097 20.8096 14.4544 20.7574C14.599 20.7052 14.7288 20.6222 14.8335 20.5149C16.2007 19.111 17.8616 17.9865 19.7126 17.2119C21.5635 16.4372 23.5648 16.0289 25.5914 16.0125C25.7694 16.0111 25.9438 15.9653 26.0967 15.8797C26.2496 15.7941 26.3754 15.6718 26.4612 15.5254C27.2929 14.1148 27.8299 12.5238 27.9943 10.8255C28.01 10.6618 27.991 10.4967 27.9384 10.3399C27.8859 10.1831 27.8008 10.0376 27.6882 9.91176C27.5755 9.78591 27.4374 9.68221 27.2818 9.60663C27.1263 9.53105 26.9564 9.48508 26.7818 9.47136C24.1135 9.26314 21.4431 9.84826 19.149 11.1438C16.8548 12.4393 15.0533 14.3796 13.9998 16.6896V16.6896Z" fill="#5DD887"/>
</svg>
