<svg width="78" height="54" viewBox="0 0 78 54" fill="none" xmlns="http://www.w3.org/2000/svg">
<path d="M39.8596 0.489044C39.6228 0.291161 39.3168 0.181824 38.9998 0.181824C38.6828 0.181824 38.3768 0.291161 38.1401 0.489044C36.9088 1.51279 35.9269 2.77339 35.2612 4.18511C34.5955 5.59682 34.2616 7.12652 34.2822 8.67017C34.284 8.83176 34.3301 8.99021 34.4161 9.13021C34.5021 9.27022 34.6251 9.38706 34.7732 9.46947C36.0717 10.1904 37.2456 11.0928 38.2543 12.1457C38.3483 12.2439 38.4632 12.3225 38.5917 12.3762C38.7201 12.43 38.8592 12.4578 38.9998 12.4578C39.1404 12.4578 39.2795 12.43 39.408 12.3762C39.5364 12.3225 39.6513 12.2439 39.7453 12.1457C40.7537 11.0943 41.9269 10.1932 43.2244 9.47324C43.3729 9.39106 43.4963 9.27431 43.5827 9.13429C43.669 8.99427 43.7154 8.83571 43.7174 8.67393C43.7383 7.12997 43.4046 5.5999 42.7388 4.18784C42.0731 2.77579 41.0911 1.51488 39.8596 0.490925V0.489044ZM25.0053 19.2887C24.9897 19.125 25.0086 18.96 25.0612 18.8032C25.1137 18.6464 25.1988 18.5008 25.3114 18.375C25.4241 18.2491 25.5622 18.1454 25.7178 18.0699C25.8733 17.9943 26.0432 17.9483 26.2178 17.9346C28.8861 17.7264 31.5565 18.3115 33.8506 19.607C36.1448 20.9026 37.9463 22.8428 38.9998 25.1528C40.0533 22.8428 41.8548 20.9026 44.149 19.607C46.4431 18.3115 49.1135 17.7264 51.7818 17.9346C52.5133 17.991 53.0624 18.5966 52.9943 19.2887C52.7062 22.265 51.2429 25.0326 48.8916 27.0482C46.5403 29.0637 43.471 30.1814 40.2864 30.1818H39.3525C39.2333 30.1817 39.1147 30.1665 38.9998 30.1367C38.8849 30.1665 38.7663 30.1817 38.6471 30.1818H37.7132C34.5286 30.1814 31.4593 29.0637 29.108 27.0482C26.7567 25.0326 25.2934 22.265 25.0053 19.2887V19.2887ZM38.9998 16.6896C37.9463 14.3796 36.1448 12.4393 33.8506 11.1438C31.5565 9.84826 28.8861 9.26314 26.2178 9.47136C26.0432 9.48508 25.8733 9.53105 25.7178 9.60663C25.5622 9.68221 25.4241 9.78591 25.3114 9.91176C25.1988 10.0376 25.1137 10.1831 25.0612 10.3399C25.0086 10.4967 24.9897 10.6618 25.0053 10.8255C25.1633 12.4756 25.6854 14.0768 26.5384 15.5273C26.6243 15.673 26.7499 15.7947 26.9024 15.88C27.0549 15.9653 27.2287 16.011 27.4062 16.0125C29.4332 16.0285 31.4348 16.4367 33.2862 17.2113C35.1375 17.986 36.7987 19.1106 38.1661 20.5149C38.2708 20.6222 38.4006 20.7052 38.5453 20.7574C38.6899 20.8096 38.8455 20.8296 38.9998 20.8158C39.1541 20.8296 39.3097 20.8096 39.4544 20.7574C39.599 20.7052 39.7288 20.6222 39.8335 20.5149C41.2007 19.111 42.8616 17.9865 44.7126 17.2119C46.5635 16.4372 48.5648 16.0289 50.5914 16.0125C50.7694 16.0111 50.9438 15.9653 51.0967 15.8797C51.2496 15.7941 51.3754 15.6718 51.4612 15.5254C52.2929 14.1148 52.8299 12.5238 52.9943 10.8255C53.01 10.6618 52.991 10.4967 52.9384 10.3399C52.8859 10.1831 52.8008 10.0376 52.6882 9.91176C52.5755 9.78591 52.4374 9.68221 52.2818 9.60663C52.1263 9.53105 51.9564 9.48508 51.7818 9.47136C49.1135 9.26314 46.4431 9.84826 44.149 11.1438C41.8548 12.4393 40.0533 14.3796 38.9998 16.6896V16.6896Z" fill="#5DD887"/>
<path d="M7.812 50.2909L9.45 41.4849C9.51533 41.1676 9.604 40.9109 9.716 40.7149C9.83733 40.5096 9.99133 40.3603 10.178 40.2669C10.374 40.1643 10.6073 40.1129 10.878 40.1129C11.0553 40.1129 11.2187 40.1409 11.368 40.1969C11.5267 40.2529 11.6293 40.3463 11.676 40.4769C11.5547 40.5796 11.4473 40.7056 11.354 40.8549C11.27 41.0043 11.1953 41.1909 11.13 41.4149C11.074 41.6296 11.0133 41.8909 10.948 42.1989L9.464 50.0949L7.812 50.2909ZM3.444 50.8789C3.26667 50.8789 3.09867 50.8463 2.94 50.7809C2.78133 50.7156 2.67867 50.6269 2.632 50.5149C2.744 50.4403 2.842 50.3469 2.926 50.2349C3.01 50.1229 3.08 49.9829 3.136 49.8149C3.20133 49.6376 3.25733 49.4229 3.304 49.1709L4.466 42.9689C4.55 42.5303 4.676 42.1663 4.844 41.8769C5.012 41.5876 5.236 41.3683 5.516 41.2189C5.796 41.0603 6.13667 40.9716 6.538 40.9529L4.872 49.4789C4.80667 49.8056 4.71333 50.0716 4.592 50.2769C4.48 50.4916 4.33067 50.6456 4.144 50.7389C3.95733 50.8323 3.724 50.8789 3.444 50.8789ZM2.24 44.7329C1.96 44.7329 1.71733 44.6676 1.512 44.5369C1.316 44.3969 1.162 44.2056 1.05 43.9629C0.938 43.7203 0.882 43.4356 0.882 43.1089C0.882 42.6609 0.989333 42.2269 1.204 41.8069C1.428 41.3776 1.764 41.0276 2.212 40.7569C2.66 40.4863 3.22933 40.3509 3.92 40.3509C4.20933 40.3509 4.47067 40.3789 4.704 40.4349C4.94667 40.4816 5.17067 40.5469 5.376 40.6309C5.59067 40.7056 5.79133 40.7756 5.978 40.8409C6.16467 40.8969 6.34667 40.9343 6.524 40.9529L5.278 41.3869L5.25 41.3449C5.194 41.3076 5.096 41.2563 4.956 41.1909C4.816 41.1256 4.58267 41.0929 4.256 41.0929C3.696 41.0929 3.25733 41.2656 2.94 41.6109C2.632 41.9563 2.478 42.4369 2.478 43.0529C2.478 43.3143 2.51067 43.5709 2.576 43.8229C2.64133 44.0749 2.73933 44.3223 2.87 44.5649C2.77667 44.6209 2.674 44.6629 2.562 44.6909C2.45933 44.7189 2.352 44.7329 2.24 44.7329ZM5.068 46.1329L5.236 45.1529H9.324L9.142 46.1329H5.068ZM14.0569 50.4729C13.5249 50.4729 13.0629 50.3749 12.6709 50.1789C12.2882 49.9736 11.9942 49.6656 11.7889 49.2549C11.5835 48.8443 11.4809 48.3263 11.4809 47.7009C11.4809 47.1129 11.5602 46.5296 11.7189 45.9509C11.8869 45.3629 12.1342 44.8309 12.4609 44.3549C12.7875 43.8789 13.2029 43.4963 13.7069 43.2069C14.2202 42.9176 14.8222 42.7729 15.5129 42.7729C15.8769 42.7729 16.2035 42.8243 16.4929 42.9269C16.7822 43.0296 17.0109 43.1976 17.1789 43.4309C17.3469 43.6643 17.4309 43.9816 17.4309 44.3829C17.4309 44.9243 17.2675 45.3816 16.9409 45.7549C16.6235 46.1189 16.1989 46.3989 15.6669 46.5949C15.1349 46.7816 14.5469 46.8749 13.9029 46.8749C13.7815 46.8749 13.6462 46.8749 13.4969 46.8749C13.3569 46.8656 13.2402 46.8563 13.1469 46.8469C13.1375 46.9963 13.1282 47.1456 13.1189 47.2949C13.1095 47.4349 13.1049 47.5656 13.1049 47.6869C13.1049 48.1909 13.1982 48.5876 13.3849 48.8769C13.5715 49.1569 13.9122 49.2969 14.4069 49.2969C14.8082 49.2969 15.1675 49.2036 15.4849 49.0169C15.8022 48.8209 16.0495 48.5456 16.2269 48.1909C16.3575 48.2283 16.4462 48.3029 16.4929 48.4149C16.5395 48.5269 16.5629 48.6436 16.5629 48.7649C16.5629 49.0449 16.4649 49.3156 16.2689 49.5769C16.0729 49.8383 15.7882 50.0529 15.4149 50.2209C15.0415 50.3889 14.5889 50.4729 14.0569 50.4729ZM13.2449 46.1609C13.5622 46.1609 13.8749 46.1283 14.1829 46.0629C14.5002 45.9976 14.7895 45.8949 15.0509 45.7549C15.3122 45.6056 15.5175 45.4189 15.6669 45.1949C15.8255 44.9616 15.9049 44.6909 15.9049 44.3829C15.9049 44.1123 15.8395 43.9116 15.7089 43.7809C15.5875 43.6409 15.4102 43.5709 15.1769 43.5709C14.9155 43.5709 14.6729 43.6549 14.4489 43.8229C14.2342 43.9816 14.0475 44.1916 13.8889 44.4529C13.7302 44.7143 13.5949 44.9943 13.4829 45.2929C13.3802 45.5916 13.3009 45.8809 13.2449 46.1609ZM19.8813 50.4729C19.4053 50.4729 19.018 50.3609 18.7193 50.1369C18.43 49.9036 18.2153 49.5909 18.0753 49.1989C17.9446 48.7976 17.8793 48.3403 17.8793 47.8269C17.8793 47.1363 17.9726 46.4876 18.1593 45.8809C18.346 45.2649 18.612 44.7236 18.9573 44.2569C19.312 43.7903 19.7226 43.4263 20.1893 43.1649C20.656 42.9036 21.1693 42.7729 21.7293 42.7729C22.1866 42.7729 22.6673 42.8709 23.1713 43.0669L24.5853 42.8849L23.4653 48.7369C23.456 48.8209 23.442 48.9189 23.4233 49.0309C23.4046 49.1429 23.3953 49.2409 23.3953 49.3249C23.3953 49.4649 23.428 49.5769 23.4933 49.6609C23.568 49.7449 23.68 49.7916 23.8293 49.8009C23.7826 49.9596 23.7033 50.0903 23.5913 50.1929C23.4886 50.2863 23.3673 50.3563 23.2273 50.4029C23.0966 50.4496 22.9473 50.4729 22.7793 50.4729C22.5273 50.4729 22.3126 50.4029 22.1353 50.2629C21.958 50.1323 21.8553 49.9363 21.8273 49.6749C21.5846 49.9083 21.2953 50.0996 20.9593 50.2489C20.6326 50.3983 20.2733 50.4729 19.8813 50.4729ZM20.4973 49.6329C20.852 49.6329 21.1366 49.5163 21.3513 49.2829C21.5753 49.0496 21.7526 48.7603 21.8833 48.4149C22.014 48.0603 22.112 47.7196 22.1773 47.3929L22.7933 44.0469C22.6066 43.8976 22.4106 43.7903 22.2053 43.7249C22.0093 43.6503 21.8273 43.6129 21.6593 43.6129C21.37 43.6129 21.1086 43.6969 20.8753 43.8649C20.6513 44.0329 20.4506 44.2616 20.2733 44.5509C20.1053 44.8403 19.9606 45.1763 19.8393 45.5589C19.7273 45.9416 19.6433 46.3523 19.5873 46.7909C19.5313 47.2203 19.5033 47.6543 19.5033 48.0929C19.5033 48.5223 19.5733 48.8863 19.7133 49.1849C19.8533 49.4836 20.1146 49.6329 20.4973 49.6329ZM26.1861 50.4729C25.8875 50.4729 25.6495 50.3889 25.4721 50.2209C25.3041 50.0529 25.2201 49.8196 25.2201 49.5209C25.2201 49.4183 25.2295 49.2969 25.2481 49.1569C25.2668 49.0169 25.2901 48.8443 25.3181 48.6389C25.3555 48.4336 25.4068 48.1769 25.4721 47.8689C25.5375 47.5609 25.6121 47.1923 25.6961 46.7629C25.7801 46.3336 25.8828 45.8249 26.0041 45.2369C26.1255 44.6489 26.2655 43.9769 26.4241 43.2209C26.5175 42.6889 26.5968 42.1709 26.6621 41.6669C26.7275 41.1536 26.7601 40.7243 26.7601 40.3789C26.7601 40.2669 26.7555 40.1689 26.7461 40.0849C26.7368 39.9916 26.7228 39.9076 26.7041 39.8329C26.7975 39.7769 26.9095 39.7303 27.0401 39.6929C27.1708 39.6556 27.3061 39.6369 27.4461 39.6369C27.6888 39.6369 27.9128 39.7116 28.1181 39.8609C28.3328 40.0009 28.4401 40.2529 28.4401 40.6169C28.4401 40.6916 28.4215 40.8409 28.3841 41.0649C28.3468 41.2889 28.3001 41.5503 28.2441 41.8489C28.1881 42.1383 28.1275 42.4416 28.0621 42.7589C28.0061 43.0669 27.9548 43.3469 27.9081 43.5989C27.6841 44.6816 27.5021 45.5683 27.3621 46.2589C27.2221 46.9403 27.1101 47.4769 27.0261 47.8689C26.9515 48.2609 26.8955 48.5503 26.8581 48.7369C26.8301 48.9236 26.8115 49.0543 26.8021 49.1289C26.7928 49.2036 26.7881 49.2689 26.7881 49.3249C26.7881 49.4649 26.8208 49.5769 26.8861 49.6609C26.9608 49.7449 27.0681 49.7916 27.2081 49.8009C27.1801 49.9596 27.1101 50.0903 26.9981 50.1929C26.8955 50.2863 26.7741 50.3563 26.6341 50.4029C26.4941 50.4496 26.3448 50.4729 26.1861 50.4729ZM30.1081 50.4869C29.8468 50.4869 29.6181 50.4029 29.4221 50.2349C29.2261 50.0669 29.1281 49.8243 29.1281 49.5069C29.1281 49.3203 29.1561 49.0589 29.2121 48.7229C29.2681 48.3776 29.3334 48.0136 29.4081 47.6309C29.4828 47.2483 29.5574 46.8843 29.6321 46.5389C29.7161 46.1843 29.7768 45.8996 29.8141 45.6849L30.2201 43.6829H29.2261L29.2821 43.2629C29.7301 43.0949 30.1734 42.8709 30.6121 42.5909C31.0508 42.3109 31.4381 42.0029 31.7741 41.6669H32.2081L31.9281 43.0529H33.0201L32.8941 43.6829H31.7881L30.8221 48.4429C30.7941 48.5923 30.7708 48.7276 30.7521 48.8489C30.7334 48.9609 30.7194 49.0683 30.7101 49.1709C30.7008 49.4229 30.7474 49.6003 30.8501 49.7029C30.9528 49.7963 31.1394 49.8149 31.4101 49.7589C31.3261 49.9363 31.2188 50.0763 31.0881 50.1789C30.9668 50.2816 30.8221 50.3563 30.6541 50.4029C30.4861 50.4589 30.3041 50.4869 30.1081 50.4869ZM38.1391 50.4729C37.8497 50.4729 37.6164 50.3889 37.4391 50.2209C37.2711 50.0623 37.1871 49.7963 37.1871 49.4229C37.1871 49.2176 37.2151 48.9516 37.2711 48.6249C37.3364 48.2983 37.4111 47.9529 37.4951 47.5889C37.5791 47.2156 37.6631 46.8469 37.7471 46.4829C37.8311 46.1189 37.9011 45.7923 37.9571 45.5029C38.0224 45.2043 38.0551 44.9709 38.0551 44.8029C38.0551 44.4949 37.9757 44.2616 37.8171 44.1029C37.6584 43.9349 37.4484 43.8509 37.1871 43.8509C36.8231 43.8509 36.5151 43.9769 36.2631 44.2289C36.0111 44.4809 35.8057 44.7983 35.6471 45.1809C35.4884 45.5543 35.3717 45.9276 35.2971 46.3009L34.5411 50.1929L32.9451 50.3609L34.1911 43.9629L35.4791 44.1869C35.7591 43.7389 36.0997 43.3936 36.5011 43.1509C36.9117 42.8989 37.3691 42.7729 37.8731 42.7729C38.4424 42.7729 38.8764 42.9223 39.1751 43.2209C39.4737 43.5103 39.6231 43.9209 39.6231 44.4529C39.6231 44.7143 39.5951 45.0176 39.5391 45.3629C39.4831 45.7083 39.4084 46.0769 39.3151 46.4689C39.2311 46.8516 39.1471 47.2249 39.0631 47.5889C38.9791 47.9529 38.9044 48.2843 38.8391 48.5829C38.7831 48.8816 38.7551 49.1149 38.7551 49.2829C38.7551 49.4229 38.7831 49.5396 38.8391 49.6329C38.8951 49.7263 39.0071 49.7823 39.1751 49.8009C39.1191 50.0343 38.9931 50.2023 38.7971 50.3049C38.6011 50.4169 38.3817 50.4729 38.1391 50.4729ZM35.4791 44.4249L34.1491 44.1589C34.2237 43.7763 34.2984 43.3563 34.3731 42.8989C34.4571 42.4323 34.5224 41.9749 34.5691 41.5269C34.6251 41.0789 34.6577 40.6916 34.6671 40.3649C34.6671 40.2529 34.6624 40.1549 34.6531 40.0709C34.6531 39.9869 34.6437 39.9076 34.6251 39.8329C34.7184 39.7676 34.8304 39.7209 34.9611 39.6929C35.0917 39.6556 35.2224 39.6369 35.3531 39.6369C35.6051 39.6369 35.8337 39.7116 36.0391 39.8609C36.2444 40.0009 36.3471 40.2576 36.3471 40.6309C36.3471 40.7523 36.3284 40.9343 36.2911 41.1769C36.2537 41.4103 36.2024 41.6763 36.1371 41.9749C36.0717 42.2736 35.9971 42.5769 35.9131 42.8849C35.8384 43.1929 35.7637 43.4823 35.6891 43.7529C35.6144 44.0236 35.5444 44.2476 35.4791 44.4249ZM41.7767 52.9929C41.4873 52.9929 41.2587 52.8996 41.0907 52.7129C40.932 52.5263 40.8527 52.2743 40.8527 51.9569C40.8527 51.7049 40.9227 51.4529 41.0627 51.2009C41.2027 50.9583 41.3753 50.7249 41.5807 50.5009C41.7953 50.2863 41.996 50.0949 42.1827 49.9269H41.5527C41.534 49.1616 41.5153 48.4523 41.4967 47.7989C41.478 47.1456 41.4547 46.5436 41.4267 45.9929C41.408 45.4329 41.366 44.9196 41.3007 44.4529C41.254 44.0796 41.1887 43.7949 41.1047 43.5989C41.03 43.4029 40.904 43.2536 40.7267 43.1509C40.8293 43.0296 40.96 42.9363 41.1187 42.8709C41.2773 42.8056 41.4687 42.7729 41.6927 42.7729C42.01 42.7729 42.2527 42.8336 42.4207 42.9549C42.598 43.0763 42.724 43.2629 42.7987 43.5149C42.8733 43.7669 42.92 44.0796 42.9387 44.4529C42.948 44.6023 42.9527 44.8123 42.9527 45.0829C42.962 45.3443 42.9667 45.6756 42.9667 46.0769C42.976 46.4689 42.976 46.9636 42.9667 47.5609L42.9527 48.9049C43.3353 48.3916 43.6807 47.8643 43.9887 47.3229C44.306 46.7723 44.558 46.2123 44.7447 45.6429C44.9313 45.0736 45.0247 44.5136 45.0247 43.9629C45.0247 43.8416 45.02 43.7109 45.0107 43.5709C45.0013 43.4309 44.9733 43.2909 44.9267 43.1509C45.048 43.0389 45.1927 42.9503 45.3607 42.8849C45.538 42.8103 45.7247 42.7729 45.9207 42.7729C46.1073 42.7729 46.2613 42.8149 46.3827 42.8989C46.504 42.9736 46.5973 43.0903 46.6627 43.2489C46.728 43.4076 46.7607 43.5943 46.7607 43.8089C46.7607 44.1263 46.7093 44.4623 46.6067 44.8169C46.5133 45.1716 46.3733 45.5496 46.1867 45.9509C46.0093 46.3523 45.7807 46.7629 45.5007 47.1829C45.23 47.6029 44.9127 48.0276 44.5487 48.4569C44.194 48.8769 43.7927 49.2923 43.3447 49.7029C43.074 49.9549 42.8593 50.1929 42.7007 50.4169C42.5513 50.6503 42.4767 50.9583 42.4767 51.3409C42.4767 51.5369 42.514 51.7469 42.5887 51.9709C42.6727 52.2043 42.7707 52.4049 42.8827 52.5729C42.752 52.7036 42.5887 52.8063 42.3927 52.8809C42.1967 52.9556 41.9913 52.9929 41.7767 52.9929ZM48.7071 44.7329C48.4271 44.7329 48.1891 44.6629 47.9931 44.5229C47.7971 44.3829 47.6478 44.1823 47.5451 43.9209C47.4518 43.6596 47.4098 43.3563 47.4191 43.0109C47.4284 42.5909 47.5404 42.1756 47.7551 41.7649C47.9791 41.3543 48.3151 41.0183 48.7631 40.7569C49.2204 40.4863 49.7991 40.3509 50.4991 40.3509C50.9844 40.3509 51.4511 40.3883 51.8991 40.4629C52.3564 40.5376 52.7998 40.6169 53.2291 40.7009C53.6678 40.7756 54.0924 40.8129 54.5031 40.8129C54.8578 40.8129 55.1704 40.7849 55.4411 40.7289C55.7211 40.6729 55.9824 40.5283 56.2251 40.2949C56.2904 40.3696 56.3464 40.4723 56.3931 40.6029C56.4398 40.7243 56.4631 40.8456 56.4631 40.9669C56.4631 41.1536 56.4164 41.3403 56.3231 41.5269C56.2298 41.7043 56.0804 41.8536 55.8751 41.9749C55.6791 42.0869 55.4178 42.1429 55.0911 42.1429C54.8391 42.1429 54.5638 42.1103 54.2651 42.0449C53.9758 41.9703 53.6584 41.8723 53.3131 41.7509C52.9678 41.6203 52.5898 41.4756 52.1791 41.3169L52.1651 41.2469C51.9131 41.1536 51.6938 41.0976 51.5071 41.0789C51.3298 41.0509 51.1198 41.0369 50.8771 41.0369C50.3171 41.0369 49.8738 41.2143 49.5471 41.5689C49.2204 41.9236 49.0524 42.4183 49.0431 43.0529C49.0338 43.3236 49.0571 43.5849 49.1131 43.8369C49.1784 44.0889 49.2718 44.3316 49.3931 44.5649C49.2904 44.6209 49.1738 44.6629 49.0431 44.6909C48.9218 44.7189 48.8098 44.7329 48.7071 44.7329ZM49.8411 50.8789C49.6638 50.8789 49.4958 50.8463 49.3371 50.7809C49.1784 50.7156 49.0758 50.6269 49.0291 50.5149C49.1598 50.4403 49.2671 50.3469 49.3511 50.2349C49.4351 50.1229 49.5098 49.9829 49.5751 49.8149C49.6404 49.6376 49.7011 49.4229 49.7571 49.1709L51.0171 43.1509C51.1011 42.7776 51.2271 42.4369 51.3951 42.1289C51.5631 41.8209 51.7871 41.5736 52.0671 41.3869C52.3471 41.1909 52.6878 41.0836 53.0891 41.0649L51.2831 49.4789C51.2178 49.8056 51.1244 50.0716 51.0031 50.2769C50.8818 50.4916 50.7231 50.6456 50.5271 50.7389C50.3404 50.8323 50.1118 50.8789 49.8411 50.8789ZM53.6351 46.0909C53.4484 46.0909 53.2524 46.0816 53.0471 46.0629C52.8511 46.0443 52.6458 46.0163 52.4311 45.9789C52.2164 45.9323 51.9971 45.8809 51.7731 45.8249L51.9971 44.9009C52.1651 44.9103 52.3331 44.9196 52.5011 44.9289C52.6691 44.9383 52.8371 44.9476 53.0051 44.9569C53.1731 44.9569 53.3318 44.9569 53.4811 44.9569C53.6958 44.9569 53.9104 44.9523 54.1251 44.9429C54.3491 44.9336 54.5778 44.9243 54.8111 44.9149C54.8204 44.9709 54.8298 45.0223 54.8391 45.0689C54.8484 45.1156 54.8531 45.1623 54.8531 45.2089C54.8438 45.4983 54.7271 45.7176 54.5031 45.8669C54.2791 46.0163 53.9898 46.0909 53.6351 46.0909ZM57.9286 50.4729C57.4433 50.4729 57.0419 50.3983 56.7246 50.2489C56.4166 50.0996 56.1739 49.9036 55.9966 49.6609C55.8193 49.4089 55.6933 49.1383 55.6186 48.8489C55.5533 48.5503 55.5206 48.2609 55.5206 47.9809C55.5206 47.3463 55.5953 46.7209 55.7446 46.1049C55.9033 45.4889 56.1413 44.9289 56.4586 44.4249C56.7853 43.9209 57.1959 43.5196 57.6906 43.2209C58.1946 42.9223 58.7966 42.7729 59.4966 42.7729C59.9913 42.7729 60.3926 42.8476 60.7006 42.9969C61.0086 43.1463 61.2513 43.3469 61.4286 43.5989C61.6153 43.8416 61.7413 44.1123 61.8066 44.4109C61.8719 44.7003 61.9046 44.9803 61.9046 45.2509C61.9046 45.8856 61.8253 46.5156 61.6666 47.1409C61.5173 47.7569 61.2793 48.3169 60.9526 48.8209C60.6353 49.3249 60.2246 49.7263 59.7206 50.0249C59.2259 50.3236 58.6286 50.4729 57.9286 50.4729ZM58.1946 49.6329C58.4746 49.6329 58.7266 49.5396 58.9506 49.3529C59.1746 49.1663 59.3706 48.9143 59.5386 48.5969C59.7066 48.2703 59.8419 47.9109 59.9446 47.5189C60.0566 47.1176 60.1406 46.7069 60.1966 46.2869C60.2526 45.8669 60.2806 45.4609 60.2806 45.0689C60.2806 44.6396 60.2059 44.2896 60.0566 44.0189C59.9073 43.7483 59.6366 43.6129 59.2446 43.6129C58.9646 43.6129 58.7079 43.7063 58.4746 43.8929C58.2413 44.0796 58.0406 44.3316 57.8726 44.6489C57.7139 44.9663 57.5786 45.3256 57.4666 45.7269C57.3546 46.1189 57.2706 46.5296 57.2146 46.9589C57.1679 47.3789 57.1446 47.7849 57.1446 48.1769C57.1446 48.5969 57.2193 48.9469 57.3686 49.2269C57.5273 49.4976 57.8026 49.6329 58.1946 49.6329ZM65.3251 50.4729C64.8398 50.4729 64.4384 50.3983 64.1211 50.2489C63.8131 50.0996 63.5704 49.9036 63.3931 49.6609C63.2158 49.4089 63.0898 49.1383 63.0151 48.8489C62.9498 48.5503 62.9171 48.2609 62.9171 47.9809C62.9171 47.3463 62.9918 46.7209 63.1411 46.1049C63.2998 45.4889 63.5378 44.9289 63.8551 44.4249C64.1818 43.9209 64.5924 43.5196 65.0871 43.2209C65.5911 42.9223 66.1931 42.7729 66.8931 42.7729C67.3878 42.7729 67.7891 42.8476 68.0971 42.9969C68.4051 43.1463 68.6478 43.3469 68.8251 43.5989C69.0118 43.8416 69.1378 44.1123 69.2031 44.4109C69.2684 44.7003 69.3011 44.9803 69.3011 45.2509C69.3011 45.8856 69.2218 46.5156 69.0631 47.1409C68.9138 47.7569 68.6758 48.3169 68.3491 48.8209C68.0318 49.3249 67.6211 49.7263 67.1171 50.0249C66.6224 50.3236 66.0251 50.4729 65.3251 50.4729ZM65.5911 49.6329C65.8711 49.6329 66.1231 49.5396 66.3471 49.3529C66.5711 49.1663 66.7671 48.9143 66.9351 48.5969C67.1031 48.2703 67.2384 47.9109 67.3411 47.5189C67.4531 47.1176 67.5371 46.7069 67.5931 46.2869C67.6491 45.8669 67.6771 45.4609 67.6771 45.0689C67.6771 44.6396 67.6024 44.2896 67.4531 44.0189C67.3038 43.7483 67.0331 43.6129 66.6411 43.6129C66.3611 43.6129 66.1044 43.7063 65.8711 43.8929C65.6378 44.0796 65.4371 44.3316 65.2691 44.6489C65.1104 44.9663 64.9751 45.3256 64.8631 45.7269C64.7511 46.1189 64.6671 46.5296 64.6111 46.9589C64.5644 47.3789 64.5411 47.7849 64.5411 48.1769C64.5411 48.5969 64.6158 48.9469 64.7651 49.2269C64.9238 49.4976 65.1991 49.6329 65.5911 49.6329ZM72.2036 50.4729C71.7276 50.4729 71.3402 50.3609 71.0416 50.1369C70.7522 49.9036 70.5376 49.5909 70.3976 49.1989C70.2669 48.7976 70.2016 48.3403 70.2016 47.8269C70.2016 47.1363 70.2949 46.4876 70.4816 45.8809C70.6776 45.2649 70.9436 44.7236 71.2796 44.2569C71.6249 43.7903 72.0356 43.4263 72.5116 43.1649C72.9876 42.9036 73.5009 42.7729 74.0516 42.7729C74.3316 42.7729 74.5836 42.8009 74.8076 42.8569C75.0409 42.9036 75.2882 42.9783 75.5496 43.0809L76.8516 43.2769C76.6836 44.1729 76.5109 45.0783 76.3336 45.9929C76.1656 46.8983 75.9836 47.8129 75.7876 48.7369C75.7782 48.8209 75.7642 48.9189 75.7456 49.0309C75.7269 49.1429 75.7176 49.2409 75.7176 49.3249C75.7176 49.4649 75.7502 49.5769 75.8156 49.6609C75.8902 49.7449 76.0022 49.7916 76.1516 49.8009C76.1049 49.9596 76.0256 50.0903 75.9136 50.1929C75.8109 50.2863 75.6896 50.3563 75.5496 50.4029C75.4189 50.4496 75.2696 50.4729 75.1016 50.4729C74.8496 50.4729 74.6349 50.4029 74.4576 50.2629C74.2802 50.1323 74.1776 49.9363 74.1496 49.6749C73.9069 49.9083 73.6176 50.0996 73.2816 50.2489C72.9549 50.3983 72.5956 50.4729 72.2036 50.4729ZM72.8196 49.6329C73.1742 49.6329 73.4589 49.5163 73.6736 49.2829C73.8976 49.0496 74.0749 48.7603 74.2056 48.4149C74.3362 48.0603 74.4342 47.7196 74.4996 47.3929L75.1156 44.0469C74.9289 43.8976 74.7329 43.7903 74.5276 43.7249C74.3316 43.6503 74.1496 43.6129 73.9816 43.6129C73.6922 43.6129 73.4309 43.6969 73.1976 43.8649C72.9736 44.0329 72.7729 44.2616 72.5956 44.5509C72.4276 44.8403 72.2829 45.1763 72.1616 45.5589C72.0496 45.9416 71.9656 46.3523 71.9096 46.7909C71.8536 47.2203 71.8256 47.6543 71.8256 48.0929C71.8256 48.5223 71.8956 48.8863 72.0356 49.1849C72.1756 49.4836 72.4369 49.6329 72.8196 49.6329ZM76.8236 43.4169L75.2836 43.3049C75.3769 42.7916 75.4562 42.2736 75.5216 41.7509C75.5962 41.2283 75.6382 40.7803 75.6476 40.4069C75.6476 40.2949 75.6429 40.1923 75.6336 40.0989C75.6336 40.0056 75.6242 39.9169 75.6056 39.8329C75.6896 39.7769 75.7969 39.7303 75.9276 39.6929C76.0582 39.6556 76.1982 39.6369 76.3476 39.6369C76.5902 39.6369 76.8142 39.7116 77.0196 39.8609C77.2249 40.0009 77.3276 40.2576 77.3276 40.6309C77.3276 40.7336 77.2996 40.9343 77.2436 41.2329C77.1969 41.5316 77.1362 41.8769 77.0616 42.2689C76.9869 42.6609 76.9076 43.0436 76.8236 43.4169Z" fill="#5DD887"/>
</svg>
