<svg width="120" height="76" viewBox="0 0 120 76" fill="none" xmlns="http://www.w3.org/2000/svg">
<path d="M61.242 0.473029C60.8999 0.168346 60.4578 0 59.9997 0C59.5416 0 59.0995 0.168346 58.7575 0.473029C56.9783 2.04929 55.5596 3.99025 54.5977 6.16387C53.6358 8.3375 53.1533 10.6928 53.1831 13.0695C53.1857 13.3184 53.2523 13.5623 53.3766 13.7779C53.5008 13.9935 53.6786 14.1734 53.8926 14.3002C55.7689 15.4102 57.465 16.7997 58.9225 18.4209C59.0583 18.5721 59.2244 18.693 59.41 18.7758C59.5956 18.8586 59.7965 18.9013 59.9997 18.9013C60.2029 18.9013 60.4039 18.8586 60.5895 18.7758C60.7751 18.693 60.9412 18.5721 61.0769 18.4209C62.534 16.802 64.2291 15.4145 66.104 14.306C66.3186 14.1795 66.4969 13.9998 66.6216 13.7842C66.7464 13.5686 66.8135 13.3244 66.8163 13.0753C66.8465 10.6981 66.3643 8.34224 65.4024 6.16809C64.4405 3.99394 63.0215 2.05251 61.242 0.475925V0.473029ZM39.7787 29.419C39.7561 29.1669 39.7835 28.9128 39.8594 28.6714C39.9353 28.4299 40.0582 28.2059 40.221 28.0121C40.3838 27.8183 40.5834 27.6587 40.8081 27.5423C41.0329 27.4259 41.2784 27.3552 41.5306 27.334C45.3861 27.0134 49.2447 27.9143 52.5595 29.9091C55.8744 31.9038 58.4774 34.8912 59.9997 38.4479C61.522 34.8912 64.125 31.9038 67.4399 29.9091C70.7548 27.9143 74.6134 27.0134 78.4688 27.334C79.5258 27.4209 80.3192 28.3533 80.2208 29.419C79.8046 34.0015 77.6901 38.2629 74.2926 41.3662C70.8952 44.4695 66.4602 46.1905 61.8588 46.1912H60.5094C60.3372 46.1909 60.1657 46.1675 59.9997 46.1217C59.8337 46.1676 59.6623 46.1909 59.4901 46.1912H58.1407C53.5392 46.1905 49.1043 44.4695 45.7068 41.3662C42.3094 38.2629 40.1949 34.0015 39.7787 29.419V29.419ZM59.9997 25.417C58.4774 21.8603 55.8744 18.8729 52.5595 16.8782C49.2447 14.8835 45.3861 13.9825 41.5306 14.3031C41.2784 14.3243 41.0329 14.3951 40.8081 14.5114C40.5834 14.6278 40.3838 14.7875 40.221 14.9812C40.0582 15.175 39.9353 15.3991 39.8594 15.6405C39.7835 15.8819 39.7561 16.136 39.7787 16.3881C40.007 18.9287 40.7614 21.3941 41.9939 23.6275C42.1181 23.8519 42.2995 24.0393 42.5198 24.1706C42.7402 24.3018 42.9914 24.3722 43.2478 24.3746C46.1766 24.3993 49.0689 25.0277 51.7439 26.2204C54.419 27.4132 56.8194 29.1448 58.7951 31.307C58.9464 31.4721 59.1339 31.5999 59.3429 31.6803C59.552 31.7607 59.7768 31.7915 59.9997 31.7703C60.2227 31.7915 60.4475 31.7607 60.6565 31.6803C60.8656 31.5999 61.0531 31.4721 61.2044 31.307C63.1799 29.1453 65.5798 27.414 68.2543 26.2213C70.9288 25.0285 73.8205 24.3999 76.7488 24.3746C77.006 24.3725 77.258 24.3019 77.4789 24.17C77.6998 24.0382 77.8815 23.8499 78.0055 23.6246C79.2073 21.4528 79.9833 19.0029 80.2208 16.3881C80.2434 16.136 80.216 15.8819 80.1401 15.6405C80.0642 15.3991 79.9413 15.175 79.7784 14.9812C79.6156 14.7875 79.4161 14.6278 79.1913 14.5114C78.9666 14.3951 78.721 14.3243 78.4688 14.3031C74.6134 13.9825 70.7548 14.8835 67.4399 16.8782C64.125 18.8729 61.522 21.8603 59.9997 25.417V25.417Z" fill="#5DD887"/>
<path d="M13.392 71.3592L16.2 56.2632C16.312 55.7192 16.464 55.2792 16.656 54.9432C16.864 54.5912 17.128 54.3352 17.448 54.1752C17.784 53.9992 18.184 53.9112 18.648 53.9112C18.952 53.9112 19.232 53.9592 19.488 54.0552C19.76 54.1512 19.936 54.3112 20.016 54.5352C19.808 54.7112 19.624 54.9272 19.464 55.1832C19.32 55.4392 19.192 55.7592 19.08 56.1432C18.984 56.5112 18.88 56.9592 18.768 57.4872L16.224 71.0232L13.392 71.3592ZM5.904 72.3672C5.6 72.3672 5.312 72.3112 5.04 72.1992C4.768 72.0872 4.592 71.9352 4.512 71.7432C4.704 71.6152 4.872 71.4552 5.016 71.2632C5.16 71.0712 5.28 70.8312 5.376 70.5432C5.488 70.2392 5.584 69.8712 5.664 69.4392L7.656 58.8072C7.8 58.0552 8.016 57.4312 8.304 56.9352C8.592 56.4392 8.976 56.0632 9.456 55.8072C9.936 55.5352 10.52 55.3832 11.208 55.3512L8.352 69.9672C8.24 70.5272 8.08 70.9832 7.872 71.3352C7.68 71.7032 7.424 71.9672 7.104 72.1272C6.784 72.2872 6.384 72.3672 5.904 72.3672ZM3.84 61.8312C3.36 61.8312 2.944 61.7192 2.592 61.4952C2.256 61.2552 1.992 60.9272 1.8 60.5112C1.608 60.0952 1.512 59.6072 1.512 59.0472C1.512 58.2792 1.696 57.5352 2.064 56.8152C2.448 56.0792 3.024 55.4792 3.792 55.0152C4.56 54.5512 5.536 54.3192 6.72 54.3192C7.216 54.3192 7.664 54.3672 8.064 54.4632C8.48 54.5432 8.864 54.6552 9.216 54.7992C9.584 54.9272 9.928 55.0472 10.248 55.1592C10.568 55.2552 10.88 55.3192 11.184 55.3512L9.048 56.0952L9 56.0232C8.904 55.9592 8.736 55.8712 8.496 55.7592C8.256 55.6472 7.856 55.5912 7.296 55.5912C6.336 55.5912 5.584 55.8872 5.04 56.4792C4.512 57.0712 4.248 57.8952 4.248 58.9512C4.248 59.3992 4.304 59.8392 4.416 60.2712C4.528 60.7032 4.696 61.1272 4.92 61.5432C4.76 61.6392 4.584 61.7112 4.392 61.7592C4.216 61.8072 4.032 61.8312 3.84 61.8312ZM8.688 64.2312L8.976 62.5512H15.984L15.672 64.2312H8.688ZM24.0975 71.6712C23.1855 71.6712 22.3935 71.5032 21.7215 71.1672C21.0655 70.8152 20.5615 70.2872 20.2095 69.5832C19.8575 68.8792 19.6815 67.9912 19.6815 66.9192C19.6815 65.9112 19.8175 64.9112 20.0895 63.9192C20.3775 62.9112 20.8015 61.9992 21.3615 61.1832C21.9215 60.3672 22.6335 59.7112 23.4975 59.2152C24.3775 58.7192 25.4095 58.4712 26.5935 58.4712C27.2175 58.4712 27.7775 58.5592 28.2735 58.7352C28.7695 58.9112 29.1615 59.1992 29.4495 59.5992C29.7375 59.9992 29.8815 60.5432 29.8815 61.2312C29.8815 62.1592 29.6015 62.9432 29.0415 63.5832C28.4975 64.2072 27.7695 64.6872 26.8575 65.0232C25.9455 65.3432 24.9375 65.5032 23.8335 65.5032C23.6255 65.5032 23.3935 65.5032 23.1375 65.5032C22.8975 65.4872 22.6975 65.4712 22.5375 65.4552C22.5215 65.7112 22.5055 65.9672 22.4895 66.2232C22.4735 66.4632 22.4655 66.6872 22.4655 66.8952C22.4655 67.7592 22.6255 68.4392 22.9455 68.9352C23.2655 69.4152 23.8495 69.6552 24.6975 69.6552C25.3855 69.6552 26.0015 69.4952 26.5455 69.1752C27.0895 68.8392 27.5135 68.3672 27.8175 67.7592C28.0415 67.8232 28.1935 67.9512 28.2735 68.1432C28.3535 68.3352 28.3935 68.5352 28.3935 68.7432C28.3935 69.2232 28.2255 69.6872 27.8895 70.1352C27.5535 70.5832 27.0655 70.9512 26.4255 71.2392C25.7855 71.5272 25.0095 71.6712 24.0975 71.6712ZM22.7055 64.2792C23.2495 64.2792 23.7855 64.2232 24.3135 64.1112C24.8575 63.9992 25.3535 63.8232 25.8015 63.5832C26.2495 63.3272 26.6015 63.0072 26.8575 62.6232C27.1295 62.2232 27.2655 61.7592 27.2655 61.2312C27.2655 60.7672 27.1535 60.4232 26.9295 60.1992C26.7215 59.9592 26.4175 59.8392 26.0175 59.8392C25.5695 59.8392 25.1535 59.9832 24.7695 60.2712C24.4015 60.5432 24.0815 60.9032 23.8095 61.3512C23.5375 61.7992 23.3055 62.2792 23.1135 62.7912C22.9375 63.3032 22.8015 63.7992 22.7055 64.2792ZM34.0823 71.6712C33.2663 71.6712 32.6023 71.4792 32.0903 71.0952C31.5943 70.6952 31.2263 70.1592 30.9863 69.4872C30.7623 68.7992 30.6503 68.0152 30.6503 67.1352C30.6503 65.9512 30.8103 64.8392 31.1303 63.7992C31.4503 62.7432 31.9063 61.8152 32.4983 61.0152C33.1063 60.2152 33.8103 59.5912 34.6103 59.1432C35.4103 58.6952 36.2903 58.4712 37.2503 58.4712C38.0343 58.4712 38.8583 58.6392 39.7223 58.9752L42.1463 58.6632L40.2263 68.6952C40.2103 68.8392 40.1863 69.0072 40.1543 69.1992C40.1223 69.3912 40.1063 69.5592 40.1063 69.7032C40.1063 69.9432 40.1623 70.1352 40.2743 70.2792C40.4023 70.4232 40.5943 70.5032 40.8503 70.5192C40.7703 70.7912 40.6343 71.0152 40.4423 71.1912C40.2663 71.3512 40.0583 71.4712 39.8183 71.5512C39.5943 71.6312 39.3383 71.6712 39.0503 71.6712C38.6183 71.6712 38.2503 71.5512 37.9463 71.3112C37.6423 71.0872 37.4663 70.7512 37.4183 70.3032C37.0023 70.7032 36.5063 71.0312 35.9303 71.2872C35.3703 71.5432 34.7543 71.6712 34.0823 71.6712ZM35.1383 70.2312C35.7463 70.2312 36.2343 70.0312 36.6023 69.6312C36.9863 69.2312 37.2903 68.7352 37.5143 68.1432C37.7383 67.5352 37.9063 66.9512 38.0183 66.3912L39.0743 60.6552C38.7543 60.3992 38.4183 60.2152 38.0663 60.1032C37.7303 59.9752 37.4183 59.9112 37.1303 59.9112C36.6343 59.9112 36.1863 60.0552 35.7863 60.3432C35.4023 60.6312 35.0583 61.0232 34.7543 61.5192C34.4663 62.0152 34.2183 62.5912 34.0103 63.2472C33.8183 63.9032 33.6743 64.6072 33.5783 65.3592C33.4823 66.0952 33.4342 66.8392 33.4342 67.5912C33.4342 68.3272 33.5543 68.9512 33.7943 69.4632C34.0343 69.9752 34.4823 70.2312 35.1383 70.2312ZM44.8905 71.6712C44.3785 71.6712 43.9705 71.5272 43.6665 71.2392C43.3785 70.9512 43.2345 70.5512 43.2345 70.0392C43.2345 69.8632 43.2505 69.6552 43.2825 69.4152C43.3145 69.1752 43.3545 68.8792 43.4025 68.5272C43.4665 68.1752 43.5545 67.7352 43.6665 67.2072C43.7785 66.6792 43.9065 66.0472 44.0505 65.3112C44.1945 64.5752 44.3705 63.7032 44.5785 62.6952C44.7865 61.6872 45.0265 60.5352 45.2985 59.2392C45.4585 58.3272 45.5945 57.4392 45.7065 56.5752C45.8185 55.6952 45.8745 54.9592 45.8745 54.3672C45.8745 54.1752 45.8665 54.0072 45.8505 53.8632C45.8345 53.7032 45.8105 53.5592 45.7785 53.4312C45.9385 53.3352 46.1305 53.2552 46.3545 53.1912C46.5785 53.1272 46.8105 53.0952 47.0505 53.0952C47.4665 53.0952 47.8505 53.2232 48.2025 53.4792C48.5705 53.7192 48.7545 54.1512 48.7545 54.7752C48.7545 54.9032 48.7225 55.1592 48.6585 55.5432C48.5945 55.9272 48.5145 56.3752 48.4185 56.8872C48.3225 57.3832 48.2185 57.9032 48.1065 58.4472C48.0105 58.9752 47.9225 59.4552 47.8425 59.8872C47.4585 61.7432 47.1465 63.2632 46.9065 64.4472C46.6665 65.6152 46.4745 66.5352 46.3305 67.2072C46.2025 67.8792 46.1065 68.3752 46.0425 68.6952C45.9945 69.0152 45.9625 69.2392 45.9465 69.3672C45.9305 69.4952 45.9225 69.6072 45.9225 69.7032C45.9225 69.9432 45.9785 70.1352 46.0905 70.2792C46.2185 70.4232 46.4025 70.5032 46.6425 70.5192C46.5945 70.7912 46.4745 71.0152 46.2825 71.1912C46.1065 71.3512 45.8985 71.4712 45.6585 71.5512C45.4185 71.6312 45.1625 71.6712 44.8905 71.6712ZM51.6139 71.6952C51.1659 71.6952 50.7739 71.5512 50.4379 71.2632C50.1019 70.9752 49.9339 70.5592 49.9339 70.0152C49.9339 69.6952 49.9819 69.2472 50.0779 68.6712C50.1739 68.0792 50.2859 67.4552 50.4139 66.7992C50.5419 66.1432 50.6699 65.5192 50.7979 64.9272C50.9419 64.3192 51.0459 63.8312 51.1099 63.4632L51.8059 60.0312H50.1019L50.1979 59.3112C50.9659 59.0232 51.7259 58.6392 52.4779 58.1592C53.2299 57.6792 53.8939 57.1512 54.4699 56.5752H55.2139L54.7339 58.9512H56.6059L56.3899 60.0312H54.4939L52.8379 68.1912C52.7899 68.4472 52.7499 68.6792 52.7179 68.8872C52.6859 69.0792 52.6619 69.2632 52.6459 69.4392C52.6299 69.8712 52.7099 70.1752 52.8859 70.3512C53.0619 70.5112 53.3819 70.5432 53.8459 70.4472C53.7019 70.7512 53.5179 70.9912 53.2939 71.1672C53.0859 71.3432 52.8379 71.4712 52.5499 71.5512C52.2619 71.6472 51.9499 71.6952 51.6139 71.6952ZM58.4453 75.9912C57.9493 75.9912 57.5573 75.8312 57.2693 75.5112C56.9973 75.1912 56.8613 74.7592 56.8613 74.2152C56.8613 73.7832 56.9813 73.3512 57.2213 72.9192C57.4613 72.5032 57.7573 72.1032 58.1093 71.7192C58.4773 71.3512 58.8213 71.0232 59.1413 70.7352H58.0613C58.0293 69.4232 57.9973 68.2072 57.9653 67.0872C57.9333 65.9672 57.8933 64.9352 57.8453 63.9912C57.8133 63.0312 57.7413 62.1512 57.6293 61.3512C57.5493 60.7112 57.4373 60.2232 57.2933 59.8872C57.1653 59.5512 56.9493 59.2952 56.6453 59.1192C56.8213 58.9112 57.0453 58.7512 57.3173 58.6392C57.5893 58.5272 57.9173 58.4712 58.3013 58.4712C58.8453 58.4712 59.2613 58.5752 59.5493 58.7832C59.8533 58.9912 60.0693 59.3112 60.1973 59.7432C60.3253 60.1752 60.4053 60.7112 60.4373 61.3512C60.4533 61.6072 60.4613 61.9672 60.4613 62.4312C60.4773 62.8792 60.4853 63.4472 60.4853 64.1352C60.5013 64.8072 60.5013 65.6552 60.4853 66.6792L60.4613 68.9832C61.1173 68.1032 61.7093 67.1992 62.2373 66.2712C62.7813 65.3272 63.2133 64.3672 63.5333 63.3912C63.8533 62.4152 64.0133 61.4552 64.0133 60.5112C64.0133 60.3032 64.0053 60.0792 63.9893 59.8392C63.9733 59.5992 63.9253 59.3592 63.8453 59.1192C64.0533 58.9272 64.3013 58.7752 64.5893 58.6632C64.8933 58.5352 65.2133 58.4712 65.5493 58.4712C65.8693 58.4712 66.1333 58.5432 66.3413 58.6872C66.5493 58.8152 66.7093 59.0152 66.8213 59.2872C66.9333 59.5592 66.9893 59.8792 66.9893 60.2472C66.9893 60.7912 66.9013 61.3672 66.7253 61.9752C66.5653 62.5832 66.3253 63.2312 66.0053 63.9192C65.7013 64.6072 65.3093 65.3112 64.8293 66.0312C64.3653 66.7512 63.8213 67.4792 63.1973 68.2152C62.5893 68.9352 61.9013 69.6472 61.1333 70.3512C60.6693 70.7832 60.3013 71.1912 60.0293 71.5752C59.7733 71.9752 59.6453 72.5032 59.6453 73.1592C59.6453 73.4952 59.7093 73.8552 59.8373 74.2392C59.9813 74.6392 60.1493 74.9832 60.3413 75.2712C60.1173 75.4952 59.8373 75.6712 59.5013 75.7992C59.1653 75.9272 58.8133 75.9912 58.4453 75.9912ZM70.326 61.8312C69.846 61.8312 69.438 61.7112 69.102 61.4712C68.766 61.2312 68.51 60.8872 68.334 60.4392C68.174 59.9912 68.102 59.4712 68.118 58.8792C68.134 58.1592 68.326 57.4472 68.694 56.7432C69.078 56.0392 69.654 55.4632 70.422 55.0152C71.206 54.5512 72.198 54.3192 73.398 54.3192C74.23 54.3192 75.03 54.3832 75.798 54.5112C76.582 54.6392 77.342 54.7752 78.078 54.9192C78.83 55.0472 79.558 55.1112 80.262 55.1112C80.87 55.1112 81.406 55.0632 81.87 54.9672C82.35 54.8712 82.798 54.6232 83.214 54.2232C83.326 54.3512 83.422 54.5272 83.502 54.7512C83.582 54.9592 83.622 55.1672 83.622 55.3752C83.622 55.6952 83.542 56.0152 83.382 56.3352C83.222 56.6392 82.966 56.8952 82.614 57.1032C82.278 57.2952 81.83 57.3912 81.27 57.3912C80.838 57.3912 80.366 57.3352 79.854 57.2232C79.358 57.0952 78.814 56.9272 78.222 56.7192C77.63 56.4952 76.982 56.2472 76.278 55.9752L76.254 55.8552C75.822 55.6952 75.446 55.5992 75.126 55.5672C74.822 55.5192 74.462 55.4952 74.046 55.4952C73.086 55.4952 72.326 55.7992 71.766 56.4072C71.206 57.0152 70.918 57.8632 70.902 58.9512C70.886 59.4152 70.926 59.8632 71.022 60.2952C71.134 60.7272 71.294 61.1432 71.502 61.5432C71.326 61.6392 71.126 61.7112 70.902 61.7592C70.694 61.8072 70.502 61.8312 70.326 61.8312ZM72.27 72.3672C71.966 72.3672 71.678 72.3112 71.406 72.1992C71.134 72.0872 70.958 71.9352 70.878 71.7432C71.102 71.6152 71.286 71.4552 71.43 71.2632C71.574 71.0712 71.702 70.8312 71.814 70.5432C71.926 70.2392 72.03 69.8712 72.126 69.4392L74.286 59.1192C74.43 58.4792 74.646 57.8952 74.934 57.3672C75.222 56.8392 75.606 56.4152 76.086 56.0952C76.566 55.7592 77.15 55.5752 77.838 55.5432L74.742 69.9672C74.63 70.5272 74.47 70.9832 74.262 71.3352C74.054 71.7032 73.782 71.9672 73.446 72.1272C73.126 72.2872 72.734 72.3672 72.27 72.3672ZM78.774 64.1592C78.454 64.1592 78.118 64.1432 77.766 64.1112C77.43 64.0792 77.078 64.0312 76.71 63.9672C76.342 63.8872 75.966 63.7992 75.582 63.7032L75.966 62.1192C76.254 62.1352 76.542 62.1512 76.83 62.1672C77.118 62.1832 77.406 62.1992 77.694 62.2152C77.982 62.2152 78.254 62.2152 78.51 62.2152C78.878 62.2152 79.246 62.2072 79.614 62.1912C79.998 62.1752 80.39 62.1592 80.79 62.1432C80.806 62.2392 80.822 62.3272 80.838 62.4072C80.854 62.4872 80.862 62.5672 80.862 62.6472C80.846 63.1432 80.646 63.5192 80.262 63.7752C79.878 64.0312 79.382 64.1592 78.774 64.1592ZM86.1343 71.6712C85.3023 71.6712 84.6143 71.5432 84.0703 71.2872C83.5423 71.0312 83.1263 70.6952 82.8223 70.2792C82.5183 69.8472 82.3023 69.3832 82.1743 68.8872C82.0623 68.3752 82.0063 67.8792 82.0063 67.3992C82.0063 66.3112 82.1343 65.2392 82.3903 64.1832C82.6623 63.1272 83.0703 62.1672 83.6143 61.3032C84.1743 60.4392 84.8783 59.7512 85.7263 59.2392C86.5903 58.7272 87.6223 58.4712 88.8223 58.4712C89.6703 58.4712 90.3583 58.5992 90.8863 58.8552C91.4143 59.1112 91.8303 59.4552 92.1343 59.8872C92.4543 60.3032 92.6703 60.7672 92.7823 61.2792C92.8943 61.7752 92.9503 62.2552 92.9503 62.7192C92.9503 63.8072 92.8143 64.8872 92.5423 65.9592C92.2863 67.0152 91.8783 67.9752 91.3183 68.8392C90.7743 69.7032 90.0703 70.3912 89.2063 70.9032C88.3583 71.4152 87.3343 71.6712 86.1343 71.6712ZM86.5903 70.2312C87.0703 70.2312 87.5023 70.0712 87.8863 69.7512C88.2703 69.4312 88.6063 68.9992 88.8943 68.4552C89.1823 67.8952 89.4143 67.2792 89.5903 66.6072C89.7823 65.9192 89.9263 65.2152 90.0223 64.4952C90.1183 63.7752 90.1663 63.0792 90.1663 62.4072C90.1663 61.6712 90.0383 61.0712 89.7823 60.6072C89.5263 60.1432 89.0623 59.9112 88.3903 59.9112C87.9103 59.9112 87.4703 60.0712 87.0703 60.3912C86.6703 60.7112 86.3263 61.1432 86.0383 61.6872C85.7663 62.2312 85.5343 62.8472 85.3423 63.5352C85.1503 64.2072 85.0063 64.9112 84.9103 65.6472C84.8303 66.3672 84.7903 67.0632 84.7903 67.7352C84.7903 68.4552 84.9183 69.0552 85.1743 69.5352C85.4463 69.9992 85.9183 70.2312 86.5903 70.2312ZM98.814 71.6712C97.982 71.6712 97.294 71.5432 96.75 71.2872C96.222 71.0312 95.806 70.6952 95.502 70.2792C95.198 69.8472 94.982 69.3832 94.854 68.8872C94.742 68.3752 94.686 67.8792 94.686 67.3992C94.686 66.3112 94.814 65.2392 95.07 64.1832C95.342 63.1272 95.75 62.1672 96.294 61.3032C96.854 60.4392 97.558 59.7512 98.406 59.2392C99.27 58.7272 100.302 58.4712 101.502 58.4712C102.35 58.4712 103.038 58.5992 103.566 58.8552C104.094 59.1112 104.51 59.4552 104.814 59.8872C105.134 60.3032 105.35 60.7672 105.462 61.2792C105.574 61.7752 105.63 62.2552 105.63 62.7192C105.63 63.8072 105.494 64.8872 105.222 65.9592C104.966 67.0152 104.558 67.9752 103.998 68.8392C103.454 69.7032 102.75 70.3912 101.886 70.9032C101.038 71.4152 100.014 71.6712 98.814 71.6712ZM99.27 70.2312C99.75 70.2312 100.182 70.0712 100.566 69.7512C100.95 69.4312 101.286 68.9992 101.574 68.4552C101.862 67.8952 102.094 67.2792 102.27 66.6072C102.462 65.9192 102.606 65.2152 102.702 64.4952C102.798 63.7752 102.846 63.0792 102.846 62.4072C102.846 61.6712 102.718 61.0712 102.462 60.6072C102.206 60.1432 101.742 59.9112 101.07 59.9112C100.59 59.9112 100.15 60.0712 99.75 60.3912C99.35 60.7112 99.006 61.1432 98.718 61.6872C98.446 62.2312 98.214 62.8472 98.022 63.5352C97.83 64.2072 97.686 64.9112 97.59 65.6472C97.51 66.3672 97.47 67.0632 97.47 67.7352C97.47 68.4552 97.598 69.0552 97.854 69.5352C98.126 69.9992 98.598 70.2312 99.27 70.2312ZM110.606 71.6712C109.79 71.6712 109.126 71.4792 108.614 71.0952C108.118 70.6952 107.75 70.1592 107.51 69.4872C107.286 68.7992 107.174 68.0152 107.174 67.1352C107.174 65.9512 107.334 64.8392 107.654 63.7992C107.99 62.7432 108.446 61.8152 109.022 61.0152C109.614 60.2152 110.318 59.5912 111.134 59.1432C111.95 58.6952 112.83 58.4712 113.774 58.4712C114.254 58.4712 114.686 58.5192 115.07 58.6152C115.47 58.6952 115.894 58.8232 116.342 58.9992L118.574 59.3352C118.286 60.8712 117.99 62.4232 117.686 63.9912C117.398 65.5432 117.086 67.1112 116.75 68.6952C116.734 68.8392 116.71 69.0072 116.678 69.1992C116.646 69.3912 116.63 69.5592 116.63 69.7032C116.63 69.9432 116.686 70.1352 116.798 70.2792C116.926 70.4232 117.118 70.5032 117.374 70.5192C117.294 70.7912 117.158 71.0152 116.966 71.1912C116.79 71.3512 116.582 71.4712 116.342 71.5512C116.118 71.6312 115.862 71.6712 115.574 71.6712C115.142 71.6712 114.774 71.5512 114.47 71.3112C114.166 71.0872 113.99 70.7512 113.942 70.3032C113.526 70.7032 113.03 71.0312 112.454 71.2872C111.894 71.5432 111.278 71.6712 110.606 71.6712ZM111.662 70.2312C112.27 70.2312 112.758 70.0312 113.126 69.6312C113.51 69.2312 113.814 68.7352 114.038 68.1432C114.262 67.5352 114.43 66.9512 114.542 66.3912L115.598 60.6552C115.278 60.3992 114.942 60.2152 114.59 60.1032C114.254 59.9752 113.942 59.9112 113.654 59.9112C113.158 59.9112 112.71 60.0552 112.31 60.3432C111.926 60.6312 111.582 61.0232 111.278 61.5192C110.99 62.0152 110.742 62.5912 110.534 63.2472C110.342 63.9032 110.198 64.6072 110.102 65.3592C110.006 66.0952 109.958 66.8392 109.958 67.5912C109.958 68.3272 110.078 68.9512 110.318 69.4632C110.558 69.9752 111.006 70.2312 111.662 70.2312ZM118.526 59.5752L115.886 59.3832C116.046 58.5032 116.182 57.6152 116.294 56.7192C116.422 55.8232 116.494 55.0552 116.51 54.4152C116.51 54.2232 116.502 54.0472 116.486 53.8872C116.486 53.7272 116.47 53.5752 116.438 53.4312C116.582 53.3352 116.766 53.2552 116.99 53.1912C117.214 53.1272 117.454 53.0952 117.71 53.0952C118.126 53.0952 118.51 53.2232 118.862 53.4792C119.214 53.7192 119.39 54.1592 119.39 54.7992C119.39 54.9752 119.342 55.3192 119.246 55.8312C119.166 56.3432 119.062 56.9352 118.934 57.6072C118.806 58.2792 118.67 58.9352 118.526 59.5752Z" fill="#5DD887"/>
</svg>
