<svg width="132" height="76" viewBox="0 0 132 76" fill="none" xmlns="http://www.w3.org/2000/svg">
<path d="M66.242 0.473029C65.8999 0.168346 65.4578 0 64.9997 0C64.5416 0 64.0995 0.168346 63.7575 0.473029C61.9783 2.04929 60.5596 3.99025 59.5977 6.16387C58.6358 8.3375 58.1533 10.6928 58.1831 13.0695C58.1857 13.3184 58.2523 13.5623 58.3766 13.7779C58.5008 13.9935 58.6785 14.1734 58.8926 14.3002C60.7689 15.4102 62.465 16.7997 63.9225 18.4209C64.0583 18.5721 64.2244 18.693 64.41 18.7758C64.5956 18.8586 64.7965 18.9013 64.9997 18.9013C65.2029 18.9013 65.4039 18.8586 65.5895 18.7758C65.7751 18.693 65.9412 18.5721 66.0769 18.4209C67.534 16.802 69.2291 15.4145 71.104 14.306C71.3185 14.1795 71.4969 13.9998 71.6216 13.7842C71.7464 13.5686 71.8135 13.3244 71.8163 13.0753C71.8465 10.6981 71.3643 8.34224 70.4024 6.16809C69.4405 3.99394 68.0215 2.05251 66.242 0.475925V0.473029ZM44.7787 29.419C44.756 29.1669 44.7835 28.9128 44.8594 28.6714C44.9353 28.4299 45.0582 28.2059 45.221 28.0121C45.3838 27.8183 45.5834 27.6587 45.8081 27.5423C46.0329 27.4259 46.2784 27.3552 46.5306 27.334C50.3861 27.0134 54.2447 27.9143 57.5595 29.9091C60.8744 31.9038 63.4774 34.8912 64.9997 38.4479C66.522 34.8912 69.125 31.9038 72.4399 29.9091C75.7548 27.9143 79.6134 27.0134 83.4688 27.334C84.5258 27.4209 85.3192 28.3533 85.2208 29.419C84.8046 34.0015 82.6901 38.2629 79.2926 41.3662C75.8952 44.4695 71.4602 46.1905 66.8588 46.1912H65.5094C65.3372 46.1909 65.1657 46.1675 64.9997 46.1217C64.8337 46.1675 64.6623 46.1909 64.4901 46.1912H63.1407C58.5392 46.1905 54.1043 44.4695 50.7068 41.3662C47.3094 38.2629 45.1949 34.0015 44.7787 29.419ZM64.9997 25.417C63.4774 21.8603 60.8744 18.8729 57.5595 16.8782C54.2447 14.8835 50.3861 13.9825 46.5306 14.3031C46.2784 14.3243 46.0329 14.3951 45.8081 14.5114C45.5834 14.6278 45.3838 14.7875 45.221 14.9812C45.0582 15.175 44.9353 15.399 44.8594 15.6405C44.7835 15.8819 44.756 16.136 44.7787 16.3881C45.007 18.9287 45.7614 21.3941 46.9939 23.6275C47.1181 23.8519 47.2995 24.0393 47.5198 24.1706C47.7401 24.3018 47.9914 24.3722 48.2478 24.3746C51.1766 24.3993 54.0689 25.0277 56.7439 26.2204C59.419 27.4132 61.8194 29.1448 63.7951 31.307C63.9464 31.4721 64.1339 31.5999 64.3429 31.6803C64.552 31.7607 64.7768 31.7915 64.9997 31.7703C65.2227 31.7915 65.4475 31.7607 65.6565 31.6803C65.8656 31.5999 66.0531 31.4721 66.2044 31.307C68.1799 29.1453 70.5798 27.414 73.2543 26.2213C75.9288 25.0285 78.8204 24.3999 81.7488 24.3746C82.006 24.3725 82.258 24.3019 82.4789 24.17C82.6998 24.0382 82.8815 23.8499 83.0055 23.6246C84.2073 21.4528 84.9833 19.0029 85.2208 16.3881C85.2434 16.136 85.216 15.8819 85.1401 15.6405C85.0642 15.399 84.9413 15.175 84.7784 14.9812C84.6156 14.7875 84.4161 14.6278 84.1913 14.5114C83.9666 14.3951 83.721 14.3243 83.4688 14.3031C79.6134 13.9825 75.7548 14.8835 72.4399 16.8782C69.125 18.8729 66.522 21.8603 64.9997 25.417Z" fill="#5DD887"/>
<path d="M11.892 71.3592L14.7 56.2632C14.812 55.7192 14.964 55.2792 15.156 54.9432C15.364 54.5912 15.628 54.3352 15.948 54.1752C16.284 53.9992 16.684 53.9112 17.148 53.9112C17.452 53.9112 17.732 53.9592 17.988 54.0552C18.26 54.1512 18.436 54.3112 18.516 54.5352C18.308 54.7112 18.124 54.9272 17.964 55.1832C17.82 55.4392 17.692 55.7592 17.58 56.1432C17.484 56.5112 17.38 56.9592 17.268 57.4872L14.724 71.0232L11.892 71.3592ZM4.404 72.3672C4.1 72.3672 3.812 72.3112 3.54 72.1992C3.268 72.0872 3.092 71.9352 3.012 71.7432C3.204 71.6152 3.372 71.4552 3.516 71.2632C3.66 71.0712 3.78 70.8312 3.876 70.5432C3.988 70.2392 4.084 69.8712 4.164 69.4392L6.156 58.8072C6.3 58.0552 6.516 57.4312 6.804 56.9352C7.092 56.4392 7.476 56.0632 7.956 55.8072C8.436 55.5352 9.02 55.3832 9.708 55.3512L6.852 69.9672C6.74 70.5272 6.58 70.9832 6.372 71.3352C6.18 71.7032 5.924 71.9672 5.604 72.1272C5.284 72.2872 4.884 72.3672 4.404 72.3672ZM2.34 61.8312C1.86 61.8312 1.444 61.7192 1.092 61.4952C0.756 61.2552 0.492 60.9272 0.3 60.5112C0.108 60.0952 0.012 59.6072 0.012 59.0472C0.012 58.2792 0.196 57.5352 0.564 56.8152C0.948 56.0792 1.524 55.4792 2.292 55.0152C3.06 54.5512 4.036 54.3192 5.22 54.3192C5.716 54.3192 6.164 54.3672 6.564 54.4632C6.98 54.5432 7.364 54.6552 7.716 54.7992C8.084 54.9272 8.428 55.0472 8.748 55.1592C9.068 55.2552 9.38 55.3192 9.684 55.3512L7.548 56.0952L7.5 56.0232C7.404 55.9592 7.236 55.8712 6.996 55.7592C6.756 55.6472 6.356 55.5912 5.796 55.5912C4.836 55.5912 4.084 55.8872 3.54 56.4792C3.012 57.0712 2.748 57.8952 2.748 58.9512C2.748 59.3992 2.804 59.8392 2.916 60.2712C3.028 60.7032 3.196 61.1272 3.42 61.5432C3.26 61.6392 3.084 61.7112 2.892 61.7592C2.716 61.8072 2.532 61.8312 2.34 61.8312ZM7.188 64.2312L7.476 62.5512H14.484L14.172 64.2312H7.188ZM22.5975 71.6712C21.6855 71.6712 20.8935 71.5032 20.2215 71.1672C19.5655 70.8152 19.0615 70.2872 18.7095 69.5832C18.3575 68.8792 18.1815 67.9912 18.1815 66.9192C18.1815 65.9112 18.3175 64.9112 18.5895 63.9192C18.8775 62.9112 19.3015 61.9992 19.8615 61.1832C20.4215 60.3672 21.1335 59.7112 21.9975 59.2152C22.8775 58.7192 23.9095 58.4712 25.0935 58.4712C25.7175 58.4712 26.2775 58.5592 26.7735 58.7352C27.2695 58.9112 27.6615 59.1992 27.9495 59.5992C28.2375 59.9992 28.3815 60.5432 28.3815 61.2312C28.3815 62.1592 28.1015 62.9432 27.5415 63.5832C26.9975 64.2072 26.2695 64.6872 25.3575 65.0232C24.4455 65.3432 23.4375 65.5032 22.3335 65.5032C22.1255 65.5032 21.8935 65.5032 21.6375 65.5032C21.3975 65.4872 21.1975 65.4712 21.0375 65.4552C21.0215 65.7112 21.0055 65.9672 20.9895 66.2232C20.9735 66.4632 20.9655 66.6872 20.9655 66.8952C20.9655 67.7592 21.1255 68.4392 21.4455 68.9352C21.7655 69.4152 22.3495 69.6552 23.1975 69.6552C23.8855 69.6552 24.5015 69.4952 25.0455 69.1752C25.5895 68.8392 26.0135 68.3672 26.3175 67.7592C26.5415 67.8232 26.6935 67.9512 26.7735 68.1432C26.8535 68.3352 26.8935 68.5352 26.8935 68.7432C26.8935 69.2232 26.7255 69.6872 26.3895 70.1352C26.0535 70.5832 25.5655 70.9512 24.9255 71.2392C24.2855 71.5272 23.5095 71.6712 22.5975 71.6712ZM21.2055 64.2792C21.7495 64.2792 22.2855 64.2232 22.8135 64.1112C23.3575 63.9992 23.8535 63.8232 24.3015 63.5832C24.7495 63.3272 25.1015 63.0072 25.3575 62.6232C25.6295 62.2232 25.7655 61.7592 25.7655 61.2312C25.7655 60.7672 25.6535 60.4232 25.4295 60.1992C25.2215 59.9592 24.9175 59.8392 24.5175 59.8392C24.0695 59.8392 23.6535 59.9832 23.2695 60.2712C22.9015 60.5432 22.5815 60.9032 22.3095 61.3512C22.0375 61.7992 21.8055 62.2792 21.6135 62.7912C21.4375 63.3032 21.3015 63.7992 21.2055 64.2792ZM32.5823 71.6712C31.7663 71.6712 31.1023 71.4792 30.5903 71.0952C30.0943 70.6952 29.7263 70.1592 29.4863 69.4872C29.2623 68.7992 29.1503 68.0152 29.1503 67.1352C29.1503 65.9512 29.3103 64.8392 29.6303 63.7992C29.9503 62.7432 30.4063 61.8152 30.9983 61.0152C31.6063 60.2152 32.3103 59.5912 33.1103 59.1432C33.9103 58.6952 34.7903 58.4712 35.7503 58.4712C36.5343 58.4712 37.3583 58.6392 38.2223 58.9752L40.6463 58.6632L38.7263 68.6952C38.7103 68.8392 38.6863 69.0072 38.6543 69.1992C38.6223 69.3912 38.6063 69.5592 38.6063 69.7032C38.6063 69.9432 38.6623 70.1352 38.7743 70.2792C38.9023 70.4232 39.0943 70.5032 39.3503 70.5192C39.2703 70.7912 39.1343 71.0152 38.9423 71.1912C38.7663 71.3512 38.5583 71.4712 38.3183 71.5512C38.0943 71.6312 37.8383 71.6712 37.5503 71.6712C37.1183 71.6712 36.7503 71.5512 36.4463 71.3112C36.1423 71.0872 35.9663 70.7512 35.9183 70.3032C35.5023 70.7032 35.0063 71.0312 34.4303 71.2872C33.8703 71.5432 33.2543 71.6712 32.5823 71.6712ZM33.6383 70.2312C34.2463 70.2312 34.7343 70.0312 35.1023 69.6312C35.4863 69.2312 35.7903 68.7352 36.0143 68.1432C36.2383 67.5352 36.4063 66.9512 36.5183 66.3912L37.5743 60.6552C37.2543 60.3992 36.9183 60.2152 36.5663 60.1032C36.2303 59.9752 35.9183 59.9112 35.6303 59.9112C35.1343 59.9112 34.6863 60.0552 34.2863 60.3432C33.9023 60.6312 33.5583 61.0232 33.2543 61.5192C32.9663 62.0152 32.7183 62.5912 32.5103 63.2472C32.3183 63.9032 32.1743 64.6072 32.0783 65.3592C31.9823 66.0952 31.9342 66.8392 31.9342 67.5912C31.9342 68.3272 32.0543 68.9512 32.2943 69.4632C32.5343 69.9752 32.9823 70.2312 33.6383 70.2312ZM43.3905 71.6712C42.8785 71.6712 42.4705 71.5272 42.1665 71.2392C41.8785 70.9512 41.7345 70.5512 41.7345 70.0392C41.7345 69.8632 41.7505 69.6552 41.7825 69.4152C41.8145 69.1752 41.8545 68.8792 41.9025 68.5272C41.9665 68.1752 42.0545 67.7352 42.1665 67.2072C42.2785 66.6792 42.4065 66.0472 42.5505 65.3112C42.6945 64.5752 42.8705 63.7032 43.0785 62.6952C43.2865 61.6872 43.5265 60.5352 43.7985 59.2392C43.9585 58.3272 44.0945 57.4392 44.2065 56.5752C44.3185 55.6952 44.3745 54.9592 44.3745 54.3672C44.3745 54.1752 44.3665 54.0072 44.3505 53.8632C44.3345 53.7032 44.3105 53.5592 44.2785 53.4312C44.4385 53.3352 44.6305 53.2552 44.8545 53.1912C45.0785 53.1272 45.3105 53.0952 45.5505 53.0952C45.9665 53.0952 46.3505 53.2232 46.7025 53.4792C47.0705 53.7192 47.2545 54.1512 47.2545 54.7752C47.2545 54.9032 47.2225 55.1592 47.1585 55.5432C47.0945 55.9272 47.0145 56.3752 46.9185 56.8872C46.8225 57.3832 46.7185 57.9032 46.6065 58.4472C46.5105 58.9752 46.4225 59.4552 46.3425 59.8872C45.9585 61.7432 45.6465 63.2632 45.4065 64.4472C45.1665 65.6152 44.9745 66.5352 44.8305 67.2072C44.7025 67.8792 44.6065 68.3752 44.5425 68.6952C44.4945 69.0152 44.4625 69.2392 44.4465 69.3672C44.4305 69.4952 44.4225 69.6072 44.4225 69.7032C44.4225 69.9432 44.4785 70.1352 44.5905 70.2792C44.7185 70.4232 44.9025 70.5032 45.1425 70.5192C45.0945 70.7912 44.9745 71.0152 44.7825 71.1912C44.6065 71.3512 44.3985 71.4712 44.1585 71.5512C43.9185 71.6312 43.6625 71.6712 43.3905 71.6712ZM50.1139 71.6952C49.6659 71.6952 49.2739 71.5512 48.9379 71.2632C48.6019 70.9752 48.4339 70.5592 48.4339 70.0152C48.4339 69.6952 48.4819 69.2472 48.5779 68.6712C48.6739 68.0792 48.7859 67.4552 48.9139 66.7992C49.0419 66.1432 49.1699 65.5192 49.2979 64.9272C49.4419 64.3192 49.5459 63.8312 49.6099 63.4632L50.3059 60.0312H48.6019L48.6979 59.3112C49.4659 59.0232 50.2259 58.6392 50.9779 58.1592C51.7299 57.6792 52.3939 57.1512 52.9699 56.5752H53.7139L53.2339 58.9512H55.1059L54.8899 60.0312H52.9939L51.3379 68.1912C51.2899 68.4472 51.2499 68.6792 51.2179 68.8872C51.1859 69.0792 51.1619 69.2632 51.1459 69.4392C51.1299 69.8712 51.2099 70.1752 51.3859 70.3512C51.5619 70.5112 51.8819 70.5432 52.3459 70.4472C52.2019 70.7512 52.0179 70.9912 51.7939 71.1672C51.5859 71.3432 51.3379 71.4712 51.0499 71.5512C50.7619 71.6472 50.4499 71.6952 50.1139 71.6952ZM63.8813 71.6712C63.3853 71.6712 62.9853 71.5272 62.6813 71.2392C62.3933 70.9672 62.2493 70.5112 62.2493 69.8712C62.2493 69.5192 62.2973 69.0632 62.3933 68.5032C62.5053 67.9432 62.6333 67.3512 62.7773 66.7272C62.9213 66.0872 63.0653 65.4552 63.2093 64.8312C63.3533 64.2072 63.4733 63.6472 63.5693 63.1512C63.6813 62.6392 63.7373 62.2392 63.7373 61.9512C63.7373 61.4232 63.6013 61.0232 63.3293 60.7512C63.0573 60.4632 62.6973 60.3192 62.2493 60.3192C61.6253 60.3192 61.0973 60.5352 60.6653 60.9672C60.2333 61.3992 59.8813 61.9432 59.6093 62.5992C59.3373 63.2392 59.1373 63.8792 59.0093 64.5192L57.7133 71.1912L54.9773 71.4792L57.1133 60.5112L59.3213 60.8952C59.8013 60.1272 60.3853 59.5352 61.0733 59.1192C61.7773 58.6872 62.5613 58.4712 63.4253 58.4712C64.4013 58.4712 65.1453 58.7272 65.6573 59.2392C66.1693 59.7352 66.4253 60.4392 66.4253 61.3512C66.4253 61.7992 66.3773 62.3192 66.2812 62.9112C66.1853 63.5032 66.0573 64.1352 65.8973 64.8072C65.7533 65.4632 65.6093 66.1032 65.4653 66.7272C65.3213 67.3512 65.1933 67.9192 65.0813 68.4312C64.9853 68.9432 64.9373 69.3432 64.9373 69.6312C64.9373 69.8712 64.9853 70.0712 65.0813 70.2312C65.1773 70.3912 65.3693 70.4872 65.6573 70.5192C65.5613 70.9192 65.3453 71.2072 65.0093 71.3832C64.6733 71.5752 64.2973 71.6712 63.8813 71.6712ZM59.3213 61.3032L57.0413 60.8472C57.1693 60.1912 57.2973 59.4712 57.4253 58.6872C57.5693 57.8872 57.6813 57.1032 57.7613 56.3352C57.8573 55.5672 57.9133 54.9032 57.9293 54.3432C57.9293 54.1512 57.9213 53.9832 57.9053 53.8392C57.9053 53.6952 57.8893 53.5592 57.8573 53.4312C58.0173 53.3192 58.2093 53.2392 58.4333 53.1912C58.6573 53.1272 58.8813 53.0952 59.1053 53.0952C59.5373 53.0952 59.9293 53.2232 60.2812 53.4792C60.6333 53.7192 60.8093 54.1592 60.8093 54.7992C60.8093 55.0072 60.7773 55.3192 60.7133 55.7352C60.6493 56.1352 60.5612 56.5912 60.4492 57.1032C60.3372 57.6152 60.2093 58.1352 60.0653 58.6632C59.9373 59.1912 59.8093 59.6872 59.6813 60.1512C59.5533 60.6152 59.4333 60.9992 59.3213 61.3032ZM70.1171 75.9912C69.6211 75.9912 69.2291 75.8312 68.9411 75.5112C68.6691 75.1912 68.5331 74.7592 68.5331 74.2152C68.5331 73.7832 68.6531 73.3512 68.8931 72.9192C69.1331 72.5032 69.4291 72.1032 69.7811 71.7192C70.1491 71.3512 70.4931 71.0232 70.8131 70.7352H69.7331C69.7011 69.4232 69.6691 68.2072 69.6371 67.0872C69.6051 65.9672 69.5651 64.9352 69.5171 63.9912C69.4851 63.0312 69.4131 62.1512 69.3011 61.3512C69.2211 60.7112 69.1091 60.2232 68.9651 59.8872C68.8371 59.5512 68.6211 59.2952 68.3171 59.1192C68.4931 58.9112 68.7171 58.7512 68.9891 58.6392C69.2611 58.5272 69.5891 58.4712 69.9731 58.4712C70.5171 58.4712 70.9331 58.5752 71.2211 58.7832C71.5251 58.9912 71.7411 59.3112 71.8691 59.7432C71.9971 60.1752 72.0771 60.7112 72.1091 61.3512C72.1251 61.6072 72.1331 61.9672 72.1331 62.4312C72.1491 62.8792 72.1571 63.4472 72.1571 64.1352C72.1731 64.8072 72.1731 65.6552 72.1571 66.6792L72.1331 68.9832C72.7891 68.1032 73.3811 67.1992 73.9091 66.2712C74.4531 65.3272 74.8851 64.3672 75.2051 63.3912C75.5251 62.4152 75.6851 61.4552 75.6851 60.5112C75.6851 60.3032 75.6771 60.0792 75.6611 59.8392C75.6451 59.5992 75.5971 59.3592 75.5171 59.1192C75.7251 58.9272 75.9731 58.7752 76.2611 58.6632C76.5651 58.5352 76.8851 58.4712 77.2211 58.4712C77.5411 58.4712 77.8051 58.5432 78.0131 58.6872C78.2211 58.8152 78.3811 59.0152 78.4931 59.2872C78.6051 59.5592 78.6611 59.8792 78.6611 60.2472C78.6611 60.7912 78.5731 61.3672 78.3971 61.9752C78.2371 62.5832 77.9971 63.2312 77.6771 63.9192C77.3731 64.6072 76.9811 65.3112 76.5011 66.0312C76.0371 66.7512 75.4931 67.4792 74.8691 68.2152C74.2611 68.9352 73.5731 69.6472 72.8051 70.3512C72.3411 70.7832 71.9731 71.1912 71.7011 71.5752C71.4451 71.9752 71.3171 72.5032 71.3171 73.1592C71.3171 73.4952 71.3811 73.8552 71.5091 74.2392C71.6531 74.6392 71.8211 74.9832 72.0131 75.2712C71.7891 75.4952 71.5091 75.6712 71.1731 75.7992C70.8371 75.9272 70.4851 75.9912 70.1171 75.9912ZM81.9979 61.8312C81.5179 61.8312 81.1099 61.7112 80.7739 61.4712C80.4379 61.2312 80.1819 60.8872 80.0059 60.4392C79.8459 59.9912 79.7739 59.4712 79.7899 58.8792C79.8059 58.1592 79.9979 57.4472 80.3659 56.7432C80.7499 56.0392 81.3259 55.4632 82.0939 55.0152C82.8779 54.5512 83.8699 54.3192 85.0699 54.3192C85.9019 54.3192 86.7019 54.3832 87.4699 54.5112C88.2539 54.6392 89.0139 54.7752 89.7499 54.9192C90.5019 55.0472 91.2299 55.1112 91.9339 55.1112C92.5419 55.1112 93.0779 55.0632 93.5419 54.9672C94.0219 54.8712 94.4699 54.6232 94.8859 54.2232C94.9979 54.3512 95.0939 54.5272 95.1739 54.7512C95.2539 54.9592 95.2939 55.1672 95.2939 55.3752C95.2939 55.6952 95.2139 56.0152 95.0539 56.3352C94.8939 56.6392 94.6379 56.8952 94.2859 57.1032C93.9499 57.2952 93.5019 57.3912 92.9419 57.3912C92.5099 57.3912 92.0379 57.3352 91.5259 57.2232C91.0299 57.0952 90.4859 56.9272 89.8939 56.7192C89.3019 56.4952 88.6539 56.2472 87.9499 55.9752L87.9259 55.8552C87.4939 55.6952 87.1179 55.5992 86.7979 55.5672C86.4939 55.5192 86.1339 55.4952 85.7179 55.4952C84.7579 55.4952 83.9979 55.7992 83.4379 56.4072C82.8779 57.0152 82.5899 57.8632 82.5739 58.9512C82.5579 59.4152 82.5979 59.8632 82.6939 60.2952C82.8059 60.7272 82.9659 61.1432 83.1739 61.5432C82.9979 61.6392 82.7979 61.7112 82.5739 61.7592C82.3659 61.8072 82.1739 61.8312 81.9979 61.8312ZM83.9419 72.3672C83.6379 72.3672 83.3499 72.3112 83.0779 72.1992C82.8059 72.0872 82.6299 71.9352 82.5499 71.7432C82.7739 71.6152 82.9579 71.4552 83.1019 71.2632C83.2459 71.0712 83.3739 70.8312 83.4859 70.5432C83.5979 70.2392 83.7019 69.8712 83.7979 69.4392L85.9579 59.1192C86.1019 58.4792 86.3179 57.8952 86.6059 57.3672C86.8939 56.8392 87.2779 56.4152 87.7579 56.0952C88.2379 55.7592 88.8219 55.5752 89.5099 55.5432L86.4139 69.9672C86.3019 70.5272 86.1419 70.9832 85.9339 71.3352C85.7259 71.7032 85.4539 71.9672 85.1179 72.1272C84.7979 72.2872 84.4059 72.3672 83.9419 72.3672ZM90.4459 64.1592C90.1259 64.1592 89.7899 64.1432 89.4379 64.1112C89.1019 64.0792 88.7499 64.0312 88.3819 63.9672C88.0139 63.8872 87.6379 63.7992 87.2539 63.7032L87.6379 62.1192C87.9259 62.1352 88.2139 62.1512 88.5019 62.1672C88.7899 62.1832 89.0779 62.1992 89.3659 62.2152C89.6539 62.2152 89.9259 62.2152 90.1819 62.2152C90.5499 62.2152 90.9179 62.2072 91.2859 62.1912C91.6699 62.1752 92.0619 62.1592 92.4619 62.1432C92.4779 62.2392 92.4939 62.3272 92.5099 62.4072C92.5259 62.4872 92.5339 62.5672 92.5339 62.6472C92.5179 63.1432 92.3179 63.5192 91.9339 63.7752C91.5499 64.0312 91.0539 64.1592 90.4459 64.1592ZM97.8062 71.6712C96.9742 71.6712 96.2862 71.5432 95.7422 71.2872C95.2142 71.0312 94.7982 70.6952 94.4942 70.2792C94.1902 69.8472 93.9742 69.3832 93.8462 68.8872C93.7342 68.3752 93.6782 67.8792 93.6782 67.3992C93.6782 66.3112 93.8062 65.2392 94.0622 64.1832C94.3342 63.1272 94.7422 62.1672 95.2862 61.3032C95.8462 60.4392 96.5502 59.7512 97.3982 59.2392C98.2622 58.7272 99.2942 58.4712 100.494 58.4712C101.342 58.4712 102.03 58.5992 102.558 58.8552C103.086 59.1112 103.502 59.4552 103.806 59.8872C104.126 60.3032 104.342 60.7672 104.454 61.2792C104.566 61.7752 104.622 62.2552 104.622 62.7192C104.622 63.8072 104.486 64.8872 104.214 65.9592C103.958 67.0152 103.55 67.9752 102.99 68.8392C102.446 69.7032 101.742 70.3912 100.878 70.9032C100.03 71.4152 99.0062 71.6712 97.8062 71.6712ZM98.2622 70.2312C98.7422 70.2312 99.1742 70.0712 99.5582 69.7512C99.9422 69.4312 100.278 68.9992 100.566 68.4552C100.854 67.8952 101.086 67.2792 101.262 66.6072C101.454 65.9192 101.598 65.2152 101.694 64.4952C101.79 63.7752 101.838 63.0792 101.838 62.4072C101.838 61.6712 101.71 61.0712 101.454 60.6072C101.198 60.1432 100.734 59.9112 100.062 59.9112C99.5822 59.9112 99.1422 60.0712 98.7422 60.3912C98.3422 60.7112 97.9982 61.1432 97.7102 61.6872C97.4382 62.2312 97.2062 62.8472 97.0142 63.5352C96.8222 64.2072 96.6782 64.9112 96.5822 65.6472C96.5022 66.3672 96.4622 67.0632 96.4622 67.7352C96.4622 68.4552 96.5902 69.0552 96.8462 69.5352C97.1182 69.9992 97.5902 70.2312 98.2622 70.2312ZM110.486 71.6712C109.654 71.6712 108.966 71.5432 108.422 71.2872C107.894 71.0312 107.478 70.6952 107.174 70.2792C106.87 69.8472 106.654 69.3832 106.526 68.8872C106.414 68.3752 106.358 67.8792 106.358 67.3992C106.358 66.3112 106.486 65.2392 106.742 64.1832C107.014 63.1272 107.422 62.1672 107.966 61.3032C108.526 60.4392 109.23 59.7512 110.078 59.2392C110.942 58.7272 111.974 58.4712 113.174 58.4712C114.022 58.4712 114.71 58.5992 115.238 58.8552C115.766 59.1112 116.182 59.4552 116.486 59.8872C116.806 60.3032 117.022 60.7672 117.134 61.2792C117.246 61.7752 117.302 62.2552 117.302 62.7192C117.302 63.8072 117.166 64.8872 116.894 65.9592C116.638 67.0152 116.23 67.9752 115.67 68.8392C115.126 69.7032 114.422 70.3912 113.558 70.9032C112.71 71.4152 111.686 71.6712 110.486 71.6712ZM110.942 70.2312C111.422 70.2312 111.854 70.0712 112.238 69.7512C112.622 69.4312 112.958 68.9992 113.246 68.4552C113.534 67.8952 113.766 67.2792 113.942 66.6072C114.134 65.9192 114.278 65.2152 114.374 64.4952C114.47 63.7752 114.518 63.0792 114.518 62.4072C114.518 61.6712 114.39 61.0712 114.134 60.6072C113.878 60.1432 113.414 59.9112 112.742 59.9112C112.262 59.9112 111.822 60.0712 111.422 60.3912C111.022 60.7112 110.678 61.1432 110.39 61.6872C110.118 62.2312 109.886 62.8472 109.694 63.5352C109.502 64.2072 109.358 64.9112 109.262 65.6472C109.182 66.3672 109.142 67.0632 109.142 67.7352C109.142 68.4552 109.27 69.0552 109.526 69.5352C109.798 69.9992 110.27 70.2312 110.942 70.2312ZM122.278 71.6712C121.462 71.6712 120.798 71.4792 120.286 71.0952C119.79 70.6952 119.422 70.1592 119.182 69.4872C118.958 68.7992 118.846 68.0152 118.846 67.1352C118.846 65.9512 119.006 64.8392 119.326 63.7992C119.662 62.7432 120.118 61.8152 120.694 61.0152C121.286 60.2152 121.99 59.5912 122.806 59.1432C123.622 58.6952 124.502 58.4712 125.446 58.4712C125.926 58.4712 126.358 58.5192 126.742 58.6152C127.142 58.6952 127.566 58.8232 128.014 58.9992L130.246 59.3352C129.958 60.8712 129.662 62.4232 129.358 63.9912C129.07 65.5432 128.758 67.1112 128.422 68.6952C128.406 68.8392 128.382 69.0072 128.35 69.1992C128.318 69.3912 128.302 69.5592 128.302 69.7032C128.302 69.9432 128.358 70.1352 128.47 70.2792C128.598 70.4232 128.79 70.5032 129.046 70.5192C128.966 70.7912 128.83 71.0152 128.638 71.1912C128.462 71.3512 128.254 71.4712 128.014 71.5512C127.79 71.6312 127.534 71.6712 127.246 71.6712C126.814 71.6712 126.446 71.5512 126.142 71.3112C125.838 71.0872 125.662 70.7512 125.614 70.3032C125.198 70.7032 124.702 71.0312 124.126 71.2872C123.566 71.5432 122.95 71.6712 122.278 71.6712ZM123.334 70.2312C123.942 70.2312 124.43 70.0312 124.798 69.6312C125.182 69.2312 125.486 68.7352 125.71 68.1432C125.934 67.5352 126.102 66.9512 126.214 66.3912L127.27 60.6552C126.95 60.3992 126.614 60.2152 126.262 60.1032C125.926 59.9752 125.614 59.9112 125.326 59.9112C124.83 59.9112 124.382 60.0552 123.982 60.3432C123.598 60.6312 123.254 61.0232 122.95 61.5192C122.662 62.0152 122.414 62.5912 122.206 63.2472C122.014 63.9032 121.87 64.6072 121.774 65.3592C121.678 66.0952 121.63 66.8392 121.63 67.5912C121.63 68.3272 121.75 68.9512 121.99 69.4632C122.23 69.9752 122.678 70.2312 123.334 70.2312ZM130.198 59.5752L127.558 59.3832C127.718 58.5032 127.854 57.6152 127.966 56.7192C128.094 55.8232 128.166 55.0552 128.182 54.4152C128.182 54.2232 128.174 54.0472 128.158 53.8872C128.158 53.7272 128.142 53.5752 128.11 53.4312C128.254 53.3352 128.438 53.2552 128.662 53.1912C128.886 53.1272 129.126 53.0952 129.382 53.0952C129.798 53.0952 130.182 53.2232 130.534 53.4792C130.886 53.7192 131.062 54.1592 131.062 54.7992C131.062 54.9752 131.014 55.3192 130.918 55.8312C130.838 56.3432 130.734 56.9352 130.606 57.6072C130.478 58.2792 130.342 58.9352 130.198 59.5752Z" fill="#5DD887"/>
</svg>
