<svg width="32" height="22" viewBox="0 0 32 22" fill="none" xmlns="http://www.w3.org/2000/svg">
<path fill-rule="evenodd" clip-rule="evenodd" d="M31.8874 11.0001C31.8874 10.698 31.7674 10.4084 31.5539 10.1948C31.3403 9.98128 31.0507 9.8613 30.7486 9.8613H3.88977L11.0571 2.6962C11.163 2.59032 11.247 2.46463 11.3043 2.32629C11.3616 2.18796 11.3911 2.03969 11.3911 1.88996C11.3911 1.74022 11.3616 1.59196 11.3043 1.45362C11.247 1.31529 11.163 1.18959 11.0571 1.08371C10.9513 0.977835 10.8256 0.893849 10.6872 0.836549C10.5489 0.779248 10.4006 0.749756 10.2509 0.749756C10.1012 0.749756 9.9529 0.779248 9.81457 0.836549C9.67623 0.893849 9.55054 0.977835 9.44466 1.08371L0.334554 10.1938C0.228505 10.2996 0.144367 10.4253 0.0869588 10.5636C0.0295504 10.702 0 10.8503 0 11.0001C0 11.1498 0.0295504 11.2982 0.0869588 11.4365C0.144367 11.5749 0.228505 11.7005 0.334554 11.8063L9.44466 20.9164C9.55054 21.0223 9.67623 21.1063 9.81457 21.1636C9.9529 21.2209 10.1012 21.2504 10.2509 21.2504C10.4006 21.2504 10.5489 21.2209 10.6872 21.1636C10.8256 21.1063 10.9513 21.0223 11.0571 20.9164C11.163 20.8105 11.247 20.6848 11.3043 20.5465C11.3616 20.4082 11.3911 20.2599 11.3911 20.1102C11.3911 19.9604 11.3616 19.8122 11.3043 19.6738C11.247 19.5355 11.163 19.4098 11.0571 19.3039L3.88977 12.1388H30.7486C31.0507 12.1388 31.3403 12.0188 31.5539 11.8053C31.7674 11.5917 31.8874 11.3021 31.8874 11.0001Z" fill="white"/>
</svg>
