<svg width="33" height="22" viewBox="0 0 33 22" fill="none" xmlns="http://www.w3.org/2000/svg">
<path fill-rule="evenodd" clip-rule="evenodd" d="M0.670094 11.0001C0.670094 10.698 0.79007 10.4084 1.00363 10.1948C1.21719 9.98128 1.50684 9.8613 1.80886 9.8613H28.6677L21.5003 2.6962C21.3945 2.59032 21.3105 2.46463 21.2532 2.32629C21.1959 2.18796 21.1664 2.03969 21.1664 1.88996C21.1664 1.74022 21.1959 1.59196 21.2532 1.45362C21.3105 1.31529 21.3945 1.18959 21.5003 1.08371C21.6062 0.977835 21.7319 0.893849 21.8703 0.836549C22.0086 0.779248 22.1569 0.749756 22.3066 0.749756C22.4563 0.749756 22.6046 0.779248 22.7429 0.836549C22.8813 0.893849 23.007 0.977835 23.1128 1.08371L32.2229 10.1938C32.329 10.2996 32.4131 10.4253 32.4705 10.5636C32.5279 10.702 32.5575 10.8503 32.5575 11.0001C32.5575 11.1498 32.5279 11.2982 32.4705 11.4365C32.4131 11.5749 32.329 11.7005 32.2229 11.8063L23.1128 20.9164C23.007 21.0223 22.8813 21.1063 22.7429 21.1636C22.6046 21.2209 22.4563 21.2504 22.3066 21.2504C22.1569 21.2504 22.0086 21.2209 21.8703 21.1636C21.7319 21.1063 21.6062 21.0223 21.5003 20.9164C21.3945 20.8105 21.3105 20.6848 21.2532 20.5465C21.1959 20.4082 21.1664 20.2599 21.1664 20.1102C21.1664 19.9604 21.1959 19.8122 21.2532 19.6738C21.3105 19.5355 21.3945 19.4098 21.5003 19.3039L28.6677 12.1388H1.80886C1.50684 12.1388 1.21719 12.0188 1.00363 11.8053C0.79007 11.5917 0.670094 11.3021 0.670094 11.0001Z" fill="white"/>
</svg>
