<svg width="31" height="30" viewBox="0 0 31 30" fill="none" xmlns="http://www.w3.org/2000/svg">
<path d="M30.97 14.1149C30.46 5.41493 22.555 -1.29006 13.45 0.209943C7.17997 1.24494 2.15498 6.32991 1.17998 12.5999C0.609981 16.2299 1.36001 19.6649 2.99501 22.4999L1.65999 27.4649C1.35999 28.5899 2.39496 29.6099 3.50496 29.2949L8.39498 27.9449C10.615 29.2499 13.21 29.9999 15.985 29.9999C24.445 29.9999 31.465 22.5449 30.97 14.1149ZM23.32 20.5799C23.185 20.8499 23.02 21.1049 22.81 21.3449C22.435 21.7499 22.0299 22.0499 21.5799 22.2299C21.1299 22.4249 20.635 22.5149 20.11 22.5149C19.345 22.5149 18.52 22.3349 17.665 21.9599C16.795 21.5849 15.94 21.0899 15.085 20.4749C14.215 19.8449 13.405 19.1399 12.625 18.3749C11.845 17.5949 11.155 16.7699 10.525 15.9149C9.90995 15.0599 9.41498 14.2049 9.05498 13.3499C8.69498 12.4949 8.515 11.6699 8.515 10.8899C8.515 10.3799 8.60499 9.88493 8.78499 9.43493C8.96499 8.96993 9.25002 8.54994 9.65502 8.17494C10.135 7.69494 10.66 7.46994 11.215 7.46994C11.425 7.46994 11.6349 7.51493 11.8299 7.60493C12.0249 7.69493 12.205 7.82993 12.34 8.02493L14.0799 10.4849C14.2149 10.6799 14.32 10.8449 14.38 11.0099C14.455 11.1749 14.485 11.3249 14.485 11.4749C14.485 11.6549 14.425 11.8349 14.32 12.0149C14.215 12.1949 14.08 12.3749 13.9 12.5549L13.3299 13.1549C13.2399 13.2449 13.21 13.3349 13.21 13.4549C13.21 13.5149 13.2249 13.5749 13.2399 13.6349C13.2699 13.6949 13.285 13.7399 13.3 13.7849C13.435 14.0399 13.675 14.3549 14.005 14.7449C14.35 15.1349 14.71 15.5399 15.1 15.9299C15.505 16.3349 15.895 16.6949 16.3 17.0399C16.69 17.3699 17.02 17.5949 17.275 17.7299C17.32 17.7449 17.365 17.7749 17.41 17.7899C17.47 17.8199 17.53 17.8199 17.605 17.8199C17.74 17.8199 17.83 17.7749 17.92 17.6849L18.4899 17.1149C18.6849 16.9199 18.865 16.7849 19.03 16.6949C19.21 16.5899 19.375 16.5299 19.57 16.5299C19.72 16.5299 19.87 16.5599 20.035 16.6349C20.2 16.7099 20.38 16.7999 20.56 16.9349L23.05 18.7049C23.245 18.8399 23.38 19.0049 23.47 19.1849C23.545 19.3799 23.59 19.5599 23.59 19.7699C23.5 20.0249 23.44 20.3099 23.32 20.5799Z" fill="#5DD887"/>
</svg>
